<svg width="100" height="100" viewBox="0 0 100 100" fill="none" xmlns="http://www.w3.org/2000/svg">
<path d="M50 22.0526H7V21.816C7 19.723 7.66969 17.685 8.91111 16V16H50" stroke="black" stroke-width="1.5" stroke-linejoin="round"/>
<path d="M50 22.0526H7V21.816C7 19.723 7.66969 17.685 8.91111 16V16H50" stroke="black" stroke-width="1.5" stroke-linejoin="round"/>
<path d="M50 30.5263H7V30.2896C7 28.1967 7.66969 26.1587 8.91111 24.4737V24.4737H50" stroke="black" stroke-width="1.5" stroke-linejoin="round"/>
<path d="M50 39H7V38.7633C7 36.6704 7.66969 34.6324 8.91111 32.9474V32.9474H50" stroke="black" stroke-width="1.5" stroke-linejoin="round"/>
<path d="M50 22.0526H93V21.816C93 19.723 92.3303 17.685 91.0889 16V16H50" stroke="black" stroke-width="1.5" stroke-linejoin="round"/>
<path d="M50 22.0526H93V21.816C93 19.723 92.3303 17.685 91.0889 16V16H50" stroke="black" stroke-width="1.5" stroke-linejoin="round"/>
<path d="M50 30.5263H93V30.2896C93 28.1967 92.3303 26.1587 91.0889 24.4737V24.4737H50" stroke="black" stroke-width="1.5" stroke-linejoin="round"/>
<path d="M50 39H93V38.7633C93 36.6704 92.3303 34.6324 91.0889 32.9474V32.9474H50" stroke="black" stroke-width="1.5" stroke-linejoin="round"/>
<path d="M50 39.0526H7V38.816C7 36.723 7.66969 34.685 8.91111 33V33H50" stroke="black" stroke-width="1.5" stroke-linejoin="round"/>
<path d="M50 39.0526H7V38.816C7 36.723 7.66969 34.685 8.91111 33V33H50" stroke="black" stroke-width="1.5" stroke-linejoin="round"/>
<path d="M50 47.5263H7V47.2896C7 45.1967 7.66969 43.1587 8.91111 41.4737V41.4737H50" stroke="black" stroke-width="1.5" stroke-linejoin="round"/>
<path d="M50 56H7V55.7633C7 53.6704 7.66969 51.6324 8.91111 49.9474V49.9474H50" stroke="black" stroke-width="1.5" stroke-linejoin="round"/>
<path d="M50 39.0526H93V38.816C93 36.723 92.3303 34.685 91.0889 33V33H50" stroke="black" stroke-width="1.5" stroke-linejoin="round"/>
<path d="M50 39.0526H93V38.816C93 36.723 92.3303 34.685 91.0889 33V33H50" stroke="black" stroke-width="1.5" stroke-linejoin="round"/>
<path d="M50 47.5263H93V47.2896C93 45.1967 92.3303 43.1587 91.0889 41.4737V41.4737H50" stroke="black" stroke-width="1.5" stroke-linejoin="round"/>
<path d="M50 56H93V55.7633C93 53.6704 92.3303 51.6324 91.0889 49.9474V49.9474H50" stroke="black" stroke-width="1.5" stroke-linejoin="round"/>
<path d="M50 56.0526H7V55.816C7 53.723 7.66969 51.685 8.91111 50V50H50" stroke="black" stroke-width="1.5" stroke-linejoin="round"/>
<path d="M50 56.0526H7V55.816C7 53.723 7.66969 51.685 8.91111 50V50H50" stroke="black" stroke-width="1.5" stroke-linejoin="round"/>
<path d="M50 64.5263H7V64.2896C7 62.1967 7.66969 60.1587 8.91111 58.4737V58.4737H50" stroke="black" stroke-width="1.5" stroke-linejoin="round"/>
<path d="M50 73H7V72.7633C7 70.6704 7.66969 68.6324 8.91111 66.9474V66.9474H50" stroke="black" stroke-width="1.5" stroke-linejoin="round"/>
<path d="M50 56.0526H93V55.816C93 53.723 92.3303 51.685 91.0889 50V50H50" stroke="black" stroke-width="1.5" stroke-linejoin="round"/>
<path d="M50 56.0526H93V55.816C93 53.723 92.3303 51.685 91.0889 50V50H50" stroke="black" stroke-width="1.5" stroke-linejoin="round"/>
<path d="M50 64.5263H93V64.2896C93 62.1967 92.3303 60.1587 91.0889 58.4737V58.4737H50" stroke="black" stroke-width="1.5" stroke-linejoin="round"/>
<path d="M50 73H93V72.7633C93 70.6704 92.3303 68.6324 91.0889 66.9474V66.9474H50" stroke="black" stroke-width="1.5" stroke-linejoin="round"/>
<path d="M50 73.0526H7V72.816C7 70.723 7.66969 68.685 8.91111 67V67H50" stroke="black" stroke-width="1.5" stroke-linejoin="round"/>
<path d="M50 73.0526H7V72.816C7 70.723 7.66969 68.685 8.91111 67V67H50" stroke="black" stroke-width="1.5" stroke-linejoin="round"/>
<path d="M50 81.5263H7V81.2896C7 79.1967 7.66969 77.1587 8.91111 75.4737V75.4737H50" stroke="black" stroke-width="1.5" stroke-linejoin="round"/>
<path d="M50 90H7V89.7633C7 87.6704 7.66969 85.6324 8.91111 83.9474V83.9474H50" stroke="black" stroke-width="1.5" stroke-linejoin="round"/>
<path d="M50 99H7V98.7633C7 96.6704 7.66969 94.6324 8.91111 92.9474V92.9474H50" stroke="black" stroke-width="1.5" stroke-linejoin="round"/>
<path d="M50 73.0526H93V72.816C93 70.723 92.3303 68.685 91.0889 67V67H50" stroke="black" stroke-width="1.5" stroke-linejoin="round"/>
<path d="M50 73.0526H93V72.816C93 70.723 92.3303 68.685 91.0889 67V67H50" stroke="black" stroke-width="1.5" stroke-linejoin="round"/>
<path d="M50 81.5263H93V81.2896C93 79.1967 92.3303 77.1587 91.0889 75.4737V75.4737H50" stroke="black" stroke-width="1.5" stroke-linejoin="round"/>
<path d="M50 90H93V89.7633C93 87.6704 92.3303 85.6324 91.0889 83.9474V83.9474H50" stroke="black" stroke-width="1.5" stroke-linejoin="round"/>
<path d="M50 99H93V98.7633C93 96.6704 92.3303 94.6324 91.0889 92.9474V92.9474H50" stroke="black" stroke-width="1.5" stroke-linejoin="round"/>
<path d="M4 2H97V10H4V2Z" stroke="black" stroke-width="2" stroke-linejoin="round"/>
<path d="M13 2V10" stroke="black" stroke-width="2"/>
<path d="M88 2V10" stroke="black" stroke-width="2"/>
<path d="M22 10V18" stroke="black" stroke-width="1.5" stroke-linecap="round"/>
<path d="M22 23V27" stroke="black" stroke-width="1.5" stroke-linecap="round"/>
<path d="M22 40V44" stroke="black" stroke-width="1.5" stroke-linecap="round"/>
<path d="M22 57V61" stroke="black" stroke-width="1.5" stroke-linecap="round"/>
<path d="M22 74V78" stroke="black" stroke-width="1.5" stroke-linecap="round"/>
<path d="M78 23V27" stroke="black" stroke-width="1.5" stroke-linecap="round"/>
<path d="M78 40V44" stroke="black" stroke-width="1.5" stroke-linecap="round"/>
<path d="M78 57V61" stroke="black" stroke-width="1.5" stroke-linecap="round"/>
<path d="M78 74V78" stroke="black" stroke-width="1.5" stroke-linecap="round"/>
<path d="M78 31V35" stroke="black" stroke-width="1.5" stroke-linecap="round"/>
<path d="M78 48V52" stroke="black" stroke-width="1.5" stroke-linecap="round"/>
<path d="M78 65V69" stroke="black" stroke-width="1.5" stroke-linecap="round"/>
<path d="M78 82V86" stroke="black" stroke-width="1.5" stroke-linecap="round"/>
<path d="M78 91V95" stroke="black" stroke-width="1.5" stroke-linecap="round"/>
<path d="M22 31V35" stroke="black" stroke-width="1.5" stroke-linecap="round"/>
<path d="M22 48V52" stroke="black" stroke-width="1.5" stroke-linecap="round"/>
<path d="M22 65V69" stroke="black" stroke-width="1.5" stroke-linecap="round"/>
<path d="M22 82V86" stroke="black" stroke-width="1.5" stroke-linecap="round"/>
<path d="M22 91V95" stroke="black" stroke-width="1.5" stroke-linecap="round"/>
<path d="M10.5 19C10.5 19.2761 10.7239 19.5 11 19.5C11.2761 19.5 11.5 19.2761 11.5 19H10.5ZM10.5 11V19H11.5V11H10.5Z" fill="black"/>
<path d="M78 18V10" stroke="black" stroke-width="1.5" stroke-linecap="round"/>
<path d="M88.5 19C88.5 19.2761 88.7239 19.5 89 19.5C89.2761 19.5 89.5 19.2761 89.5 19H88.5ZM88.5 10V19H89.5V10H88.5Z" fill="black"/>
<path d="M10.5 27C10.5 27.2761 10.7239 27.5 11 27.5C11.2761 27.5 11.5 27.2761 11.5 27H10.5ZM10.5 22V27H11.5V22H10.5Z" fill="black"/>
<path d="M10.5 44C10.5 44.2761 10.7239 44.5 11 44.5C11.2761 44.5 11.5 44.2761 11.5 44H10.5ZM10.5 39V44H11.5V39H10.5Z" fill="black"/>
<path d="M10.5 61C10.5 61.2761 10.7239 61.5 11 61.5C11.2761 61.5 11.5 61.2761 11.5 61H10.5ZM10.5 56V61H11.5V56H10.5Z" fill="black"/>
<path d="M10.5 78C10.5 78.2761 10.7239 78.5 11 78.5C11.2761 78.5 11.5 78.2761 11.5 78H10.5ZM10.5 73V78H11.5V73H10.5Z" fill="black"/>
<path d="M89.5 27C89.5 27.2761 89.2761 27.5 89 27.5C88.7239 27.5 88.5 27.2761 88.5 27H89.5ZM89.5 22V27H88.5V22H89.5Z" fill="black"/>
<path d="M89.5 44C89.5 44.2761 89.2761 44.5 89 44.5C88.7239 44.5 88.5 44.2761 88.5 44H89.5ZM89.5 39V44H88.5V39H89.5Z" fill="black"/>
<path d="M89.5 61C89.5 61.2761 89.2761 61.5 89 61.5C88.7239 61.5 88.5 61.2761 88.5 61H89.5ZM89.5 56V61H88.5V56H89.5Z" fill="black"/>
<path d="M89.5 78C89.5 78.2761 89.2761 78.5 89 78.5C88.7239 78.5 88.5 78.2761 88.5 78H89.5ZM89.5 73V78H88.5V73H89.5Z" fill="black"/>
<path d="M89.5 35C89.5 35.2761 89.2761 35.5 89 35.5C88.7239 35.5 88.5 35.2761 88.5 35H89.5ZM89.5 30V35H88.5V30H89.5Z" fill="black"/>
<path d="M89.5 52C89.5 52.2761 89.2761 52.5 89 52.5C88.7239 52.5 88.5 52.2761 88.5 52H89.5ZM89.5 47V52H88.5V47H89.5Z" fill="black"/>
<path d="M89.5 69C89.5 69.2761 89.2761 69.5 89 69.5C88.7239 69.5 88.5 69.2761 88.5 69H89.5ZM89.5 64V69H88.5V64H89.5Z" fill="black"/>
<path d="M89.5 86C89.5 86.2761 89.2761 86.5 89 86.5C88.7239 86.5 88.5 86.2761 88.5 86H89.5ZM89.5 81V86H88.5V81H89.5Z" fill="black"/>
<path d="M89.5 95C89.5 95.2761 89.2761 95.5 89 95.5C88.7239 95.5 88.5 95.2761 88.5 95H89.5ZM89.5 90V95H88.5V90H89.5Z" fill="black"/>
<path d="M10.5 35C10.5 35.2761 10.7239 35.5 11 35.5C11.2761 35.5 11.5 35.2761 11.5 35H10.5ZM10.5 30V35H11.5V30H10.5Z" fill="black"/>
<path d="M10.5 52C10.5 52.2761 10.7239 52.5 11 52.5C11.2761 52.5 11.5 52.2761 11.5 52H10.5ZM10.5 47V52H11.5V47H10.5Z" fill="black"/>
<path d="M10.5 69C10.5 69.2761 10.7239 69.5 11 69.5C11.2761 69.5 11.5 69.2761 11.5 69H10.5ZM10.5 64V69H11.5V64H10.5Z" fill="black"/>
<path d="M10.5 86C10.5 86.2761 10.7239 86.5 11 86.5C11.2761 86.5 11.5 86.2761 11.5 86H10.5ZM10.5 81V86H11.5V81H10.5Z" fill="black"/>
<path d="M10.5 95C10.5 95.2761 10.7239 95.5 11 95.5C11.2761 95.5 11.5 95.2761 11.5 95H10.5ZM10.5 90V95H11.5V90H10.5Z" fill="black"/>
<line x1="84.25" y1="11.25" x2="84.25" y2="77.75" stroke="black" stroke-width="2.5" stroke-linecap="round"/>
</svg>
