<svg width="95" height="101" viewBox="0 0 95 101" fill="none" xmlns="http://www.w3.org/2000/svg">
<path d="M47.5 19H3L4.03488 13.375L4.97778 9H47.5" stroke="black" stroke-width="1.5" stroke-linejoin="round"/>
<path d="M47.5 19H92L90.9651 13.375L90.0222 9H47.5" stroke="black" stroke-width="1.5" stroke-linejoin="round"/>
<path d="M47.5 49H3L4.03488 43.375L4.97778 39H47.5" stroke="black" stroke-width="1.5" stroke-linejoin="round"/>
<path d="M47.5 49H92L90.9651 43.375L90.0222 39H47.5" stroke="black" stroke-width="1.5" stroke-linejoin="round"/>
<path d="M47.5 79H3L4.03488 73.375L4.97778 69H47.5" stroke="black" stroke-width="1.5" stroke-linejoin="round"/>
<path d="M47.5 79H92L90.9651 73.375L90.0222 69H47.5" stroke="black" stroke-width="1.5" stroke-linejoin="round"/>
<path d="M47.5 29H3L4.03488 23.375L4.97778 19H47.5" stroke="black" stroke-width="1.5" stroke-linejoin="round"/>
<path d="M47.5 29H92L90.9651 23.375L90.0222 19H47.5" stroke="black" stroke-width="1.5" stroke-linejoin="round"/>
<path d="M47.5 59H3L4.03488 53.375L4.97778 49H47.5" stroke="black" stroke-width="1.5" stroke-linejoin="round"/>
<path d="M47.5 59H92L90.9651 53.375L90.0222 49H47.5" stroke="black" stroke-width="1.5" stroke-linejoin="round"/>
<path d="M47.5 89H3L4.03488 83.375L4.97778 79H47.5" stroke="black" stroke-width="1.5" stroke-linejoin="round"/>
<path d="M47.5 89H92L90.9651 83.375L90.0222 79H47.5" stroke="black" stroke-width="1.5" stroke-linejoin="round"/>
<path d="M47.5 99H3L4.03488 93.375L4.97778 89H47.5" stroke="black" stroke-width="1.5" stroke-linejoin="round"/>
<path d="M47.5 99H92L90.9651 93.375L90.0222 89H47.5" stroke="black" stroke-width="1.5" stroke-linejoin="round"/>
<path d="M47.5 39H3L4.03488 33.375L4.97778 29H47.5" stroke="black" stroke-width="1.5" stroke-linejoin="round"/>
<path d="M47.5 39H92L90.9651 33.375L90.0222 29H47.5" stroke="black" stroke-width="1.5" stroke-linejoin="round"/>
<path d="M47.5 69H3L4.03488 63.375L4.97778 59H47.5" stroke="black" stroke-width="1.5" stroke-linejoin="round"/>
<path d="M47.5 69H92L90.9651 63.375L90.0222 59H47.5" stroke="black" stroke-width="1.5" stroke-linejoin="round"/>
<path d="M1 1H94V9H1V1Z" stroke="black" stroke-width="2" stroke-linejoin="round"/>
<path d="M10 1V9" stroke="black" stroke-width="2"/>
<path d="M85 1V9" stroke="black" stroke-width="2"/>
<line x1="82.25" y1="10.25" x2="82.25" y2="76.75" stroke="black" stroke-width="2.5" stroke-linecap="round"/>
<rect x="71.75" y="8.75" width="5.5" height="91.5" fill="white" stroke="black" stroke-width="1.5"/>
<rect x="16.75" y="8.75" width="5.5" height="91.5" fill="white" stroke="black" stroke-width="1.5"/>
<path d="M22.593 13H32.9419" stroke="black" stroke-width="0.5" stroke-linecap="round"/>
<path d="M29.907 16H37.1512" stroke="black" stroke-width="0.5" stroke-linecap="round"/>
<path d="M41.2907 12H48.5349" stroke="black" stroke-width="0.5" stroke-linecap="round"/>
<path d="M59.9186 16.5H65.093" stroke="black" stroke-width="0.5" stroke-linecap="round"/>
<path d="M63 15H72" stroke="black" stroke-width="0.5" stroke-linecap="round"/>
<path d="M46.4651 14L57.8489 14" stroke="black" stroke-width="0.5" stroke-linecap="round"/>
<path d="M78 13L87 13" stroke="black" stroke-width="0.5" stroke-linecap="round"/>
<path d="M7.13956 15H10.2442" stroke="black" stroke-width="0.5" stroke-linecap="round"/>
<path d="M22.593 43H32.9419" stroke="black" stroke-width="0.5" stroke-linecap="round"/>
<path d="M29.907 46H37.1512" stroke="black" stroke-width="0.5" stroke-linecap="round"/>
<path d="M41.2907 42H48.5349" stroke="black" stroke-width="0.5" stroke-linecap="round"/>
<path d="M59.9186 46.5H65.093" stroke="black" stroke-width="0.5" stroke-linecap="round"/>
<path d="M63 45H71" stroke="black" stroke-width="0.5" stroke-linecap="round"/>
<path d="M46.4651 44H57.8489" stroke="black" stroke-width="0.5" stroke-linecap="round"/>
<path d="M78 43H87" stroke="black" stroke-width="0.5" stroke-linecap="round"/>
<path d="M7.13956 45H10.2442" stroke="black" stroke-width="0.5" stroke-linecap="round"/>
<path d="M22.593 73H32.9419" stroke="black" stroke-width="0.5" stroke-linecap="round"/>
<path d="M29.907 76H37.1512" stroke="black" stroke-width="0.5" stroke-linecap="round"/>
<path d="M41.2907 72H48.5349" stroke="black" stroke-width="0.5" stroke-linecap="round"/>
<path d="M59.9186 76.5H65.093" stroke="black" stroke-width="0.5" stroke-linecap="round"/>
<path d="M63 75H72" stroke="black" stroke-width="0.5" stroke-linecap="round"/>
<path d="M46.4651 74H57.8489" stroke="black" stroke-width="0.5" stroke-linecap="round"/>
<path d="M78 73H87" stroke="black" stroke-width="0.5" stroke-linecap="round"/>
<path d="M7.13956 75H10.2442" stroke="black" stroke-width="0.5" stroke-linecap="round"/>
<path d="M72 25H64" stroke="black" stroke-width="0.5" stroke-linecap="round"/>
<path d="M65.093 22.5H57.8488" stroke="black" stroke-width="0.5" stroke-linecap="round"/>
<path d="M53.7093 26.5H46.4651" stroke="black" stroke-width="0.5" stroke-linecap="round"/>
<path d="M35.0814 22H29.907" stroke="black" stroke-width="0.5" stroke-linecap="round"/>
<path d="M17 23H11" stroke="black" stroke-width="0.5" stroke-linecap="round"/>
<path d="M48.5349 24.5L37.1512 24.5" stroke="black" stroke-width="0.5" stroke-linecap="round"/>
<path d="M10.2442 25.5H8.17442" stroke="black" stroke-width="0.5" stroke-linecap="round"/>
<path d="M87.8605 23.5H84.7558" stroke="black" stroke-width="0.5" stroke-linecap="round"/>
<path d="M72 55H64" stroke="black" stroke-width="0.5" stroke-linecap="round"/>
<path d="M65.093 52.5H57.8488" stroke="black" stroke-width="0.5" stroke-linecap="round"/>
<path d="M53.7093 56.5H46.4651" stroke="black" stroke-width="0.5" stroke-linecap="round"/>
<path d="M35.0814 52H29.907" stroke="black" stroke-width="0.5" stroke-linecap="round"/>
<path d="M17 53H10" stroke="black" stroke-width="0.5" stroke-linecap="round"/>
<path d="M48.5349 54.5H37.1512" stroke="black" stroke-width="0.5" stroke-linecap="round"/>
<path d="M10.2442 55.5H8.17442" stroke="black" stroke-width="0.5" stroke-linecap="round"/>
<path d="M90.5 53.5H84.7558" stroke="black" stroke-width="0.5" stroke-linecap="round"/>
<path d="M72 85H64" stroke="black" stroke-width="0.5" stroke-linecap="round"/>
<path d="M65.093 82.5H57.8488" stroke="black" stroke-width="0.5" stroke-linecap="round"/>
<path d="M53.7093 86.5H46.4651" stroke="black" stroke-width="0.5" stroke-linecap="round"/>
<path d="M35.0814 82H29.907" stroke="black" stroke-width="0.5" stroke-linecap="round"/>
<path d="M17 83H10" stroke="black" stroke-width="0.5" stroke-linecap="round"/>
<path d="M48.5349 84.5H37.1512" stroke="black" stroke-width="0.5" stroke-linecap="round"/>
<path d="M10.2442 85.5H8.17442" stroke="black" stroke-width="0.5" stroke-linecap="round"/>
<path d="M87.8605 83.5H84.7558" stroke="black" stroke-width="0.5" stroke-linecap="round"/>
<path d="M72 95H64" stroke="black" stroke-width="0.5" stroke-linecap="round"/>
<path d="M86 97H78" stroke="black" stroke-width="0.5" stroke-linecap="round"/>
<path d="M65.093 92.5H57.8488" stroke="black" stroke-width="0.5" stroke-linecap="round"/>
<path d="M53.7093 96.5H46.4651" stroke="black" stroke-width="0.5" stroke-linecap="round"/>
<path d="M35.0814 92H29.907" stroke="black" stroke-width="0.5" stroke-linecap="round"/>
<path d="M33.9768 93.5H22.593" stroke="black" stroke-width="0.5" stroke-linecap="round"/>
<path d="M48.5349 94.5H37.1512" stroke="black" stroke-width="0.5" stroke-linecap="round"/>
<path d="M10.2442 95.5H8.17442" stroke="black" stroke-width="0.5" stroke-linecap="round"/>
<path d="M91 93H85" stroke="black" stroke-width="0.5" stroke-linecap="round"/>
<path d="M22.593 35.5H32.9419" stroke="black" stroke-width="0.5" stroke-linecap="round"/>
<path d="M29.907 32.5H37.1512" stroke="black" stroke-width="0.5" stroke-linecap="round"/>
<path d="M41.2907 36.5H48.5349" stroke="black" stroke-width="0.5" stroke-linecap="round"/>
<path d="M59.9186 32H65.093" stroke="black" stroke-width="0.5" stroke-linecap="round"/>
<path d="M63 33H72" stroke="black" stroke-width="0.5" stroke-linecap="round"/>
<path d="M46.4651 34.5H57.8489" stroke="black" stroke-width="0.5" stroke-linecap="round"/>
<path d="M84.7558 35.5H86.8256" stroke="black" stroke-width="0.5" stroke-linecap="round"/>
<path d="M7.13956 33.5H10.2442" stroke="black" stroke-width="0.5" stroke-linecap="round"/>
<path d="M13 36H16.1047" stroke="black" stroke-width="0.5" stroke-linecap="round"/>
<path d="M22.593 65.5H32.9419" stroke="black" stroke-width="0.5" stroke-linecap="round"/>
<path d="M29.907 62.5H37.1512" stroke="black" stroke-width="0.5" stroke-linecap="round"/>
<path d="M41.2907 66.5H48.5349" stroke="black" stroke-width="0.5" stroke-linecap="round"/>
<path d="M59.9186 62H65.093" stroke="black" stroke-width="0.5" stroke-linecap="round"/>
<path d="M63 63H72" stroke="black" stroke-width="0.5" stroke-linecap="round"/>
<path d="M46.4651 64.5H57.8489" stroke="black" stroke-width="0.5" stroke-linecap="round"/>
<path d="M84.7558 65.5H86.8256" stroke="black" stroke-width="0.5" stroke-linecap="round"/>
<path d="M7.13956 63.5H10.2442" stroke="black" stroke-width="0.5" stroke-linecap="round"/>
</svg>
