<svg width="98" height="100" viewBox="0 0 98 100" fill="none" xmlns="http://www.w3.org/2000/svg">
<path d="M28.5 19H19V32.5H28.5M28.5 19V32.5M28.5 19H37.25M28.5 32.5H37.25M37.25 32.5H46V19H37.25M37.25 32.5V19" stroke="black" stroke-width="2" stroke-linejoin="round"/>
<rect x="46.25" y="21.75" width="22.5" height="8.5" stroke="black" stroke-width="1.5"/>
<rect x="46.25" y="21.75" width="22.5" height="8.5" stroke="black" stroke-width="1.5"/>
<rect x="68.5" y="18" width="9" height="34" stroke="black" stroke-width="2"/>
<path fill-rule="evenodd" clip-rule="evenodd" d="M86.5 21H78H76.5V22.5V29.5V31H78H86.5V29.5H78V22.5H86.5V21Z" fill="black"/>
<rect x="41.5" y="53" width="9" height="34" stroke="black" stroke-width="2"/>
<path fill-rule="evenodd" clip-rule="evenodd" d="M59.5 56H51H49.5V57.5V64.5V66H51H59.5V64.5H51V57.5H59.5V56Z" fill="black"/>
<path fill-rule="evenodd" clip-rule="evenodd" d="M42 56H27.5H26V57.5V64.5V66H27.5H42V64.5H27.5V57.5H42V56Z" fill="black"/>
<mask id="mask0_47_96" style="mask-type:alpha" maskUnits="userSpaceOnUse" x="26" y="56" width="17" height="10">
<rect x="26.75" y="56.75" width="15" height="8.5" stroke="black" stroke-width="1.5"/>
</mask>
<g mask="url(#mask0_47_96)">
<path d="M28.0938 61C28.0938 63.3091 27.4486 65.3557 26.4574 66.7974C25.4632 68.2436 24.1908 69 22.9062 69C21.6217 69 20.3493 68.2436 19.3551 66.7974C18.3639 65.3557 17.7188 63.3091 17.7188 61C17.7188 58.6909 18.3639 56.6443 19.3551 55.2026C20.3493 53.7564 21.6217 53 22.9062 53C24.1908 53 25.4632 53.7564 26.4574 55.2026C27.4486 56.6443 28.0938 58.6909 28.0938 61Z" fill="#D9D9D9" stroke="black" stroke-width="2"/>
</g>
<circle cx="19" cy="61" r="8" stroke="black" stroke-width="2"/>
</svg>
