<svg width="160" height="160" viewBox="0 0 160 160" fill="none" xmlns="http://www.w3.org/2000/svg">
<rect width="160" height="160" fill="white" fill-opacity="0.9"/>
<path d="M58.5 58.5V76C58.5 81.2467 62.7533 85.5 68 85.5V85.5" stroke="black" stroke-width="2" stroke-linejoin="round"/>
<path d="M146 142C146.552 142 147 141.552 147 141C147 140.448 146.552 140 146 140V142ZM113.5 120.5H132.632V118.5H113.5V120.5ZM132.497 129H127.133V131H132.497V129ZM124.151 141.163L124.332 141.258L125.257 139.485L125.076 139.39L124.151 141.163ZM127.36 142H146V140H127.36V142ZM124.332 141.258C125.267 141.745 126.305 142 127.36 142V140C126.627 140 125.906 139.823 125.257 139.485L124.332 141.258ZM124.562 129.535C119.591 131.696 119.344 138.655 124.151 141.163L125.076 139.39C121.761 137.66 121.93 132.86 125.36 131.369L124.562 129.535ZM127.133 129C126.248 129 125.373 129.182 124.562 129.535L125.36 131.369C125.919 131.126 126.523 131 127.133 131V129ZM134.846 128.393C134.128 128.788 133.312 129 132.497 129V131C133.654 131 134.8 130.701 135.81 130.146L134.846 128.393ZM134.776 121.006C137.741 122.489 137.803 126.767 134.846 128.393L135.81 130.146C140.127 127.771 140.13 121.447 135.67 119.217L134.776 121.006ZM132.632 120.5C133.377 120.5 134.11 120.673 134.776 121.006L135.67 119.217C134.727 118.746 133.687 118.5 132.632 118.5V120.5Z" fill="black"/>
<path d="M103.365 106H63.6345C57.4512 106 52.7498 111.555 53.7722 117.654L57.7973 141.661C58.1204 143.588 59.7884 145 61.7423 145H105.258C107.212 145 108.88 143.588 109.203 141.661L113.228 117.654C114.25 111.555 109.549 106 103.365 106Z" stroke="black" stroke-width="2"/>
<path d="M54 119L113 119" stroke="black" stroke-width="2" stroke-linecap="round"/>
<path d="M74 119.25H93V126.25C93 127.355 92.1046 128.25 91 128.25H76C74.8954 128.25 74 127.355 74 126.25V119.25Z" stroke="black" stroke-width="2"/>
<path d="M54.5889 21.5025L125.994 36.6801C130.856 37.7135 133.959 42.4927 132.926 47.3546L129.391 63.9831C128.358 68.845 123.579 71.9487 118.717 70.9152L47.312 55.7377C45.1511 55.2784 43.7717 53.1543 44.231 50.9934L49.8447 24.5835C50.304 22.4226 52.428 21.0432 54.5889 21.5025Z" fill="white" stroke="black" stroke-width="2"/>
<path d="M44.746 24.5221L49.6367 25.5616L44.4389 50.0153L39.5482 48.9758C36.8471 48.4016 35.1229 45.7465 35.697 43.0455L37.2564 35.7094L38.8157 28.3732C39.3898 25.6722 42.0449 23.9479 44.746 24.5221Z" stroke="black" stroke-width="2"/>
<rect x="29.0342" y="26.2941" width="10" height="15" transform="rotate(12 29.0342 26.2941)" stroke="black" stroke-width="2" stroke-linejoin="round"/>
<path d="M11.1063 28.8731C10.566 28.7582 10.035 29.1031 9.9202 29.6433C9.80537 30.1835 10.1502 30.7145 10.6904 30.8294L11.1063 28.8731ZM26.7566 32.1996L11.1063 28.8731L10.6904 30.8294L26.3408 34.1559L26.7566 32.1996Z" fill="black"/>
<line x1="61.4359" y1="22.9579" x2="54.3669" y2="56.2149" stroke="black" stroke-width="2"/>
<line x1="49.7313" y1="29.9267" x2="58.5346" y2="31.7979" stroke="black" stroke-width="1.5"/>
<line x1="46.1407" y1="45.2633" x2="55.944" y2="47.1345" stroke="black" stroke-width="1.5"/>
<line x1="121.103" y1="35.6405" x2="113.826" y2="69.8757" stroke="black" stroke-width="2"/>
<path d="M66.2452 34.2045L111.802 45.9326" stroke="black" stroke-width="2" stroke-linecap="round"/>
<line x1="69" y1="61" x2="69" y2="105" stroke="black" stroke-width="2"/>
<line x1="100" y1="67" x2="100" y2="105" stroke="black" stroke-width="2"/>
<path d="M79.75 72V98" stroke="black" stroke-width="2" stroke-linecap="round"/>
</svg>
