<svg width="100" height="100" viewBox="0 0 100 100" fill="none" xmlns="http://www.w3.org/2000/svg">
<path d="M3 3H96V11H3V3Z" stroke="black" stroke-width="2" stroke-linejoin="round"/>
<path d="M12 3V11" stroke="black" stroke-width="2"/>
<path d="M87 3V11" stroke="black" stroke-width="2"/>
<path d="M3 89H96V97H3V89Z" stroke="black" stroke-width="2" stroke-linejoin="round"/>
<path d="M12 89V97" stroke="black" stroke-width="2"/>
<path d="M87 89V97" stroke="black" stroke-width="2"/>
<path d="M93.7071 18.7071C94.0976 18.3166 94.0976 17.6834 93.7071 17.2929L87.3431 10.9289C86.9526 10.5384 86.3195 10.5384 85.9289 10.9289C85.5384 11.3195 85.5384 11.9526 85.9289 12.3431L91.5858 18L85.9289 23.6569C85.5384 24.0474 85.5384 24.6805 85.9289 25.0711C86.3195 25.4616 86.9526 25.4616 87.3431 25.0711L93.7071 18.7071ZM28 19H93V17H28V19Z" fill="black"/>
<path d="M5.29289 17.2929C4.90237 17.6834 4.90237 18.3166 5.29289 18.7071L11.6569 25.0711C12.0474 25.4616 12.6805 25.4616 13.0711 25.0711C13.4616 24.6805 13.4616 24.0474 13.0711 23.6569L7.41422 18L13.0711 12.3431C13.4616 11.9526 13.4616 11.3195 13.0711 10.9289C12.6805 10.5384 12.0474 10.5384 11.6569 10.9289L5.29289 17.2929ZM71 17L6 17V19L71 19V17Z" fill="black"/>
<path d="M93.7071 31.7071C94.0976 31.3166 94.0976 30.6834 93.7071 30.2929L87.3431 23.9289C86.9526 23.5384 86.3195 23.5384 85.9289 23.9289C85.5384 24.3195 85.5384 24.9526 85.9289 25.3431L91.5858 31L85.9289 36.6569C85.5384 37.0474 85.5384 37.6805 85.9289 38.0711C86.3195 38.4616 86.9526 38.4616 87.3431 38.0711L93.7071 31.7071ZM28 32H93V30H28V32Z" fill="black"/>
<path d="M5.29289 30.2929C4.90237 30.6834 4.90237 31.3166 5.29289 31.7071L11.6569 38.0711C12.0474 38.4616 12.6805 38.4616 13.0711 38.0711C13.4616 37.6805 13.4616 37.0474 13.0711 36.6569L7.41422 31L13.0711 25.3431C13.4616 24.9526 13.4616 24.3195 13.0711 23.9289C12.6805 23.5384 12.0474 23.5384 11.6569 23.9289L5.29289 30.2929ZM71 30L6 30V32L71 32V30Z" fill="black"/>
<line x1="13" y1="24.75" x2="86" y2="24.75" stroke="black" stroke-width="1.5"/>
<path d="M93.7071 18.7071C94.0976 18.3166 94.0976 17.6834 93.7071 17.2929L87.3431 10.9289C86.9526 10.5384 86.3195 10.5384 85.9289 10.9289C85.5384 11.3195 85.5384 11.9526 85.9289 12.3431L91.5858 18L85.9289 23.6569C85.5384 24.0474 85.5384 24.6805 85.9289 25.0711C86.3195 25.4616 86.9526 25.4616 87.3431 25.0711L93.7071 18.7071ZM28 19H93V17H28V19Z" fill="black"/>
<path d="M5.29289 17.2929C4.90237 17.6834 4.90237 18.3166 5.29289 18.7071L11.6569 25.0711C12.0474 25.4616 12.6805 25.4616 13.0711 25.0711C13.4616 24.6805 13.4616 24.0474 13.0711 23.6569L7.41422 18L13.0711 12.3431C13.4616 11.9526 13.4616 11.3195 13.0711 10.9289C12.6805 10.5384 12.0474 10.5384 11.6569 10.9289L5.29289 17.2929ZM71 17L6 17V19L71 19V17Z" fill="black"/>
<path d="M93.7071 31.7071C94.0976 31.3166 94.0976 30.6834 93.7071 30.2929L87.3431 23.9289C86.9526 23.5384 86.3195 23.5384 85.9289 23.9289C85.5384 24.3195 85.5384 24.9526 85.9289 25.3431L91.5858 31L85.9289 36.6569C85.5384 37.0474 85.5384 37.6805 85.9289 38.0711C86.3195 38.4616 86.9526 38.4616 87.3431 38.0711L93.7071 31.7071ZM28 32H93V30H28V32Z" fill="black"/>
<path d="M5.29289 30.2929C4.90237 30.6834 4.90237 31.3166 5.29289 31.7071L11.6569 38.0711C12.0474 38.4616 12.6805 38.4616 13.0711 38.0711C13.4616 37.6805 13.4616 37.0474 13.0711 36.6569L7.41422 31L13.0711 25.3431C13.4616 24.9526 13.4616 24.3195 13.0711 23.9289C12.6805 23.5384 12.0474 23.5384 11.6569 23.9289L5.29289 30.2929ZM71 30L6 30V32L71 32V30Z" fill="black"/>
<line x1="13" y1="24.75" x2="86" y2="24.75" stroke="black" stroke-width="1.5"/>
<path d="M93.7071 31.7071C94.0976 31.3166 94.0976 30.6834 93.7071 30.2929L87.3431 23.9289C86.9526 23.5384 86.3195 23.5384 85.9289 23.9289C85.5384 24.3195 85.5384 24.9526 85.9289 25.3431L91.5858 31L85.9289 36.6569C85.5384 37.0474 85.5384 37.6805 85.9289 38.0711C86.3195 38.4616 86.9526 38.4616 87.3431 38.0711L93.7071 31.7071ZM28 32H93V30H28V32Z" fill="black"/>
<path d="M5.29289 30.2929C4.90237 30.6834 4.90237 31.3166 5.29289 31.7071L11.6569 38.0711C12.0474 38.4616 12.6805 38.4616 13.0711 38.0711C13.4616 37.6805 13.4616 37.0474 13.0711 36.6569L7.41422 31L13.0711 25.3431C13.4616 24.9526 13.4616 24.3195 13.0711 23.9289C12.6805 23.5384 12.0474 23.5384 11.6569 23.9289L5.29289 30.2929ZM71 30L6 30V32L71 32V30Z" fill="black"/>
<path d="M93.7071 44.2071C94.0976 43.8166 94.0976 43.1834 93.7071 42.7929L87.3431 36.4289C86.9526 36.0384 86.3195 36.0384 85.9289 36.4289C85.5384 36.8195 85.5384 37.4526 85.9289 37.8431L91.5858 43.5L85.9289 49.1569C85.5384 49.5474 85.5384 50.1805 85.9289 50.5711C86.3195 50.9616 86.9526 50.9616 87.3431 50.5711L93.7071 44.2071ZM28 44.5H93V42.5H28V44.5Z" fill="black"/>
<path d="M5.29289 42.7929C4.90237 43.1834 4.90237 43.8166 5.29289 44.2071L11.6569 50.5711C12.0474 50.9616 12.6805 50.9616 13.0711 50.5711C13.4616 50.1805 13.4616 49.5474 13.0711 49.1569L7.41422 43.5L13.0711 37.8431C13.4616 37.4526 13.4616 36.8195 13.0711 36.4289C12.6805 36.0384 12.0474 36.0384 11.6569 36.4289L5.29289 42.7929ZM71 42.5L6 42.5V44.5L71 44.5V42.5Z" fill="black"/>
<line x1="13" y1="24.75" x2="86" y2="24.75" stroke="black" stroke-width="1.5"/>
<line x1="13" y1="37.25" x2="86" y2="37.25" stroke="black" stroke-width="1.5"/>
<path d="M93.7071 31.7071C94.0976 31.3166 94.0976 30.6834 93.7071 30.2929L87.3431 23.9289C86.9526 23.5384 86.3195 23.5384 85.9289 23.9289C85.5384 24.3195 85.5384 24.9526 85.9289 25.3431L91.5858 31L85.9289 36.6569C85.5384 37.0474 85.5384 37.6805 85.9289 38.0711C86.3195 38.4616 86.9526 38.4616 87.3431 38.0711L93.7071 31.7071ZM28 32H93V30H28V32Z" fill="black"/>
<path d="M5.29289 30.2929C4.90237 30.6834 4.90237 31.3166 5.29289 31.7071L11.6569 38.0711C12.0474 38.4616 12.6805 38.4616 13.0711 38.0711C13.4616 37.6805 13.4616 37.0474 13.0711 36.6569L7.41422 31L13.0711 25.3431C13.4616 24.9526 13.4616 24.3195 13.0711 23.9289C12.6805 23.5384 12.0474 23.5384 11.6569 23.9289L5.29289 30.2929ZM71 30L6 30V32L71 32V30Z" fill="black"/>
<path d="M93.7071 44.2071C94.0976 43.8166 94.0976 43.1834 93.7071 42.7929L87.3431 36.4289C86.9526 36.0384 86.3195 36.0384 85.9289 36.4289C85.5384 36.8195 85.5384 37.4526 85.9289 37.8431L91.5858 43.5L85.9289 49.1569C85.5384 49.5474 85.5384 50.1805 85.9289 50.5711C86.3195 50.9616 86.9526 50.9616 87.3431 50.5711L93.7071 44.2071ZM28 44.5H93V42.5H28V44.5Z" fill="black"/>
<path d="M5.29289 42.7929C4.90237 43.1834 4.90237 43.8166 5.29289 44.2071L11.6569 50.5711C12.0474 50.9616 12.6805 50.9616 13.0711 50.5711C13.4616 50.1805 13.4616 49.5474 13.0711 49.1569L7.41422 43.5L13.0711 37.8431C13.4616 37.4526 13.4616 36.8195 13.0711 36.4289C12.6805 36.0384 12.0474 36.0384 11.6569 36.4289L5.29289 42.7929ZM71 42.5L6 42.5V44.5L71 44.5V42.5Z" fill="black"/>
<line x1="13" y1="24.75" x2="86" y2="24.75" stroke="black" stroke-width="1.5"/>
<line x1="13" y1="37.25" x2="86" y2="37.25" stroke="black" stroke-width="1.5"/>
<path d="M93.7071 44.2071C94.0976 43.8166 94.0976 43.1834 93.7071 42.7929L87.3431 36.4289C86.9526 36.0384 86.3195 36.0384 85.9289 36.4289C85.5384 36.8195 85.5384 37.4526 85.9289 37.8431L91.5858 43.5L85.9289 49.1569C85.5384 49.5474 85.5384 50.1805 85.9289 50.5711C86.3195 50.9616 86.9526 50.9616 87.3431 50.5711L93.7071 44.2071ZM28 44.5H93V42.5H28V44.5Z" fill="black"/>
<path d="M5.29289 42.7929C4.90237 43.1834 4.90237 43.8166 5.29289 44.2071L11.6569 50.5711C12.0474 50.9616 12.6805 50.9616 13.0711 50.5711C13.4616 50.1805 13.4616 49.5474 13.0711 49.1569L7.41422 43.5L13.0711 37.8431C13.4616 37.4526 13.4616 36.8195 13.0711 36.4289C12.6805 36.0384 12.0474 36.0384 11.6569 36.4289L5.29289 42.7929ZM71 42.5L6 42.5V44.5L71 44.5V42.5Z" fill="black"/>
<line x1="13" y1="37.25" x2="86" y2="37.25" stroke="black" stroke-width="1.5"/>
<path d="M93.7071 44.2071C94.0976 43.8166 94.0976 43.1834 93.7071 42.7929L87.3431 36.4289C86.9526 36.0384 86.3195 36.0384 85.9289 36.4289C85.5384 36.8195 85.5384 37.4526 85.9289 37.8431L91.5858 43.5L85.9289 49.1569C85.5384 49.5474 85.5384 50.1805 85.9289 50.5711C86.3195 50.9616 86.9526 50.9616 87.3431 50.5711L93.7071 44.2071ZM28 44.5H93V42.5H28V44.5Z" fill="black"/>
<path d="M5.29289 42.7929C4.90237 43.1834 4.90237 43.8166 5.29289 44.2071L11.6569 50.5711C12.0474 50.9616 12.6805 50.9616 13.0711 50.5711C13.4616 50.1805 13.4616 49.5474 13.0711 49.1569L7.41422 43.5L13.0711 37.8431C13.4616 37.4526 13.4616 36.8195 13.0711 36.4289C12.6805 36.0384 12.0474 36.0384 11.6569 36.4289L5.29289 42.7929ZM71 42.5L6 42.5V44.5L71 44.5V42.5Z" fill="black"/>
<line x1="13" y1="37.25" x2="86" y2="37.25" stroke="black" stroke-width="1.5"/>
<path d="M93.7071 57.2071C94.0976 56.8166 94.0976 56.1834 93.7071 55.7929L87.3431 49.4289C86.9526 49.0384 86.3195 49.0384 85.9289 49.4289C85.5384 49.8195 85.5384 50.4526 85.9289 50.8431L91.5858 56.5L85.9289 62.1569C85.5384 62.5474 85.5384 63.1805 85.9289 63.5711C86.3195 63.9616 86.9526 63.9616 87.3431 63.5711L93.7071 57.2071ZM28 57.5H93V55.5H28V57.5Z" fill="black"/>
<path d="M5.29289 55.7929C4.90237 56.1834 4.90237 56.8166 5.29289 57.2071L11.6569 63.5711C12.0474 63.9616 12.6805 63.9616 13.0711 63.5711C13.4616 63.1805 13.4616 62.5474 13.0711 62.1569L7.41422 56.5L13.0711 50.8431C13.4616 50.4526 13.4616 49.8195 13.0711 49.4289C12.6805 49.0384 12.0474 49.0384 11.6569 49.4289L5.29289 55.7929ZM71 55.5L6 55.5V57.5L71 57.5V55.5Z" fill="black"/>
<path d="M93.7071 70.2071C94.0976 69.8166 94.0976 69.1834 93.7071 68.7929L87.3431 62.4289C86.9526 62.0384 86.3195 62.0384 85.9289 62.4289C85.5384 62.8195 85.5384 63.4526 85.9289 63.8431L91.5858 69.5L85.9289 75.1569C85.5384 75.5474 85.5384 76.1805 85.9289 76.5711C86.3195 76.9616 86.9526 76.9616 87.3431 76.5711L93.7071 70.2071ZM28 70.5H93V68.5H28V70.5Z" fill="black"/>
<path d="M5.29289 68.7929C4.90237 69.1834 4.90237 69.8166 5.29289 70.2071L11.6569 76.5711C12.0474 76.9616 12.6805 76.9616 13.0711 76.5711C13.4616 76.1805 13.4616 75.5474 13.0711 75.1569L7.41422 69.5L13.0711 63.8431C13.4616 63.4526 13.4616 62.8195 13.0711 62.4289C12.6805 62.0384 12.0474 62.0384 11.6569 62.4289L5.29289 68.7929ZM71 68.5L6 68.5V70.5L71 70.5V68.5Z" fill="black"/>
<path d="M93.7071 83.2071C94.0976 82.8166 94.0976 82.1834 93.7071 81.7929L87.3431 75.4289C86.9526 75.0384 86.3195 75.0384 85.9289 75.4289C85.5384 75.8195 85.5384 76.4526 85.9289 76.8431L91.5858 82.5L85.9289 88.1569C85.5384 88.5474 85.5384 89.1805 85.9289 89.5711C86.3195 89.9616 86.9526 89.9616 87.3431 89.5711L93.7071 83.2071ZM28 83.5H93V81.5H28V83.5Z" fill="black"/>
<path d="M5.29289 81.7929C4.90237 82.1834 4.90237 82.8166 5.29289 83.2071L11.6569 89.5711C12.0474 89.9616 12.6805 89.9616 13.0711 89.5711C13.4616 89.1805 13.4616 88.5474 13.0711 88.1569L7.41422 82.5L13.0711 76.8431C13.4616 76.4526 13.4616 75.8195 13.0711 75.4289C12.6805 75.0384 12.0474 75.0384 11.6569 75.4289L5.29289 81.7929ZM71 81.5L6 81.5V83.5L71 83.5V81.5Z" fill="black"/>
<line x1="13" y1="50.25" x2="86" y2="50.25" stroke="black" stroke-width="1.5"/>
<line x1="13" y1="63.25" x2="86" y2="63.25" stroke="black" stroke-width="1.5"/>
<line x1="13" y1="76.25" x2="86" y2="76.25" stroke="black" stroke-width="1.5"/>
<path d="M93.7071 57.2071C94.0976 56.8166 94.0976 56.1834 93.7071 55.7929L87.3431 49.4289C86.9526 49.0384 86.3195 49.0384 85.9289 49.4289C85.5384 49.8195 85.5384 50.4526 85.9289 50.8431L91.5858 56.5L85.9289 62.1569C85.5384 62.5474 85.5384 63.1805 85.9289 63.5711C86.3195 63.9616 86.9526 63.9616 87.3431 63.5711L93.7071 57.2071ZM28 57.5H93V55.5H28V57.5Z" fill="black"/>
<path d="M5.29289 55.7929C4.90237 56.1834 4.90237 56.8166 5.29289 57.2071L11.6569 63.5711C12.0474 63.9616 12.6805 63.9616 13.0711 63.5711C13.4616 63.1805 13.4616 62.5474 13.0711 62.1569L7.41422 56.5L13.0711 50.8431C13.4616 50.4526 13.4616 49.8195 13.0711 49.4289C12.6805 49.0384 12.0474 49.0384 11.6569 49.4289L5.29289 55.7929ZM71 55.5L6 55.5V57.5L71 57.5V55.5Z" fill="black"/>
<path d="M93.7071 70.2071C94.0976 69.8166 94.0976 69.1834 93.7071 68.7929L87.3431 62.4289C86.9526 62.0384 86.3195 62.0384 85.9289 62.4289C85.5384 62.8195 85.5384 63.4526 85.9289 63.8431L91.5858 69.5L85.9289 75.1569C85.5384 75.5474 85.5384 76.1805 85.9289 76.5711C86.3195 76.9616 86.9526 76.9616 87.3431 76.5711L93.7071 70.2071ZM28 70.5H93V68.5H28V70.5Z" fill="black"/>
<path d="M5.29289 68.7929C4.90237 69.1834 4.90237 69.8166 5.29289 70.2071L11.6569 76.5711C12.0474 76.9616 12.6805 76.9616 13.0711 76.5711C13.4616 76.1805 13.4616 75.5474 13.0711 75.1569L7.41422 69.5L13.0711 63.8431C13.4616 63.4526 13.4616 62.8195 13.0711 62.4289C12.6805 62.0384 12.0474 62.0384 11.6569 62.4289L5.29289 68.7929ZM71 68.5L6 68.5V70.5L71 70.5V68.5Z" fill="black"/>
<path d="M93.7071 83.2071C94.0976 82.8166 94.0976 82.1834 93.7071 81.7929L87.3431 75.4289C86.9526 75.0384 86.3195 75.0384 85.9289 75.4289C85.5384 75.8195 85.5384 76.4526 85.9289 76.8431L91.5858 82.5L85.9289 88.1569C85.5384 88.5474 85.5384 89.1805 85.9289 89.5711C86.3195 89.9616 86.9526 89.9616 87.3431 89.5711L93.7071 83.2071ZM28 83.5H93V81.5H28V83.5Z" fill="black"/>
<path d="M5.29289 81.7929C4.90237 82.1834 4.90237 82.8166 5.29289 83.2071L11.6569 89.5711C12.0474 89.9616 12.6805 89.9616 13.0711 89.5711C13.4616 89.1805 13.4616 88.5474 13.0711 88.1569L7.41422 82.5L13.0711 76.8431C13.4616 76.4526 13.4616 75.8195 13.0711 75.4289C12.6805 75.0384 12.0474 75.0384 11.6569 75.4289L5.29289 81.7929ZM71 81.5L6 81.5V83.5L71 83.5V81.5Z" fill="black"/>
<line x1="13" y1="50.25" x2="86" y2="50.25" stroke="black" stroke-width="1.5"/>
<line x1="13" y1="63.25" x2="86" y2="63.25" stroke="black" stroke-width="1.5"/>
<line x1="13" y1="76.25" x2="86" y2="76.25" stroke="black" stroke-width="1.5"/>
<path d="M93.7071 57.2071C94.0976 56.8166 94.0976 56.1834 93.7071 55.7929L87.3431 49.4289C86.9526 49.0384 86.3195 49.0384 85.9289 49.4289C85.5384 49.8195 85.5384 50.4526 85.9289 50.8431L91.5858 56.5L85.9289 62.1569C85.5384 62.5474 85.5384 63.1805 85.9289 63.5711C86.3195 63.9616 86.9526 63.9616 87.3431 63.5711L93.7071 57.2071ZM28 57.5H93V55.5H28V57.5Z" fill="black"/>
<path d="M5.29289 55.7929C4.90237 56.1834 4.90237 56.8166 5.29289 57.2071L11.6569 63.5711C12.0474 63.9616 12.6805 63.9616 13.0711 63.5711C13.4616 63.1805 13.4616 62.5474 13.0711 62.1569L7.41422 56.5L13.0711 50.8431C13.4616 50.4526 13.4616 49.8195 13.0711 49.4289C12.6805 49.0384 12.0474 49.0384 11.6569 49.4289L5.29289 55.7929ZM71 55.5L6 55.5V57.5L71 57.5V55.5Z" fill="black"/>
<path d="M93.7071 70.2071C94.0976 69.8166 94.0976 69.1834 93.7071 68.7929L87.3431 62.4289C86.9526 62.0384 86.3195 62.0384 85.9289 62.4289C85.5384 62.8195 85.5384 63.4526 85.9289 63.8431L91.5858 69.5L85.9289 75.1569C85.5384 75.5474 85.5384 76.1805 85.9289 76.5711C86.3195 76.9616 86.9526 76.9616 87.3431 76.5711L93.7071 70.2071ZM28 70.5H93V68.5H28V70.5Z" fill="black"/>
<path d="M5.29289 68.7929C4.90237 69.1834 4.90237 69.8166 5.29289 70.2071L11.6569 76.5711C12.0474 76.9616 12.6805 76.9616 13.0711 76.5711C13.4616 76.1805 13.4616 75.5474 13.0711 75.1569L7.41422 69.5L13.0711 63.8431C13.4616 63.4526 13.4616 62.8195 13.0711 62.4289C12.6805 62.0384 12.0474 62.0384 11.6569 62.4289L5.29289 68.7929ZM71 68.5L6 68.5V70.5L71 70.5V68.5Z" fill="black"/>
<path d="M93.7071 83.2071C94.0976 82.8166 94.0976 82.1834 93.7071 81.7929L87.3431 75.4289C86.9526 75.0384 86.3195 75.0384 85.9289 75.4289C85.5384 75.8195 85.5384 76.4526 85.9289 76.8431L91.5858 82.5L85.9289 88.1569C85.5384 88.5474 85.5384 89.1805 85.9289 89.5711C86.3195 89.9616 86.9526 89.9616 87.3431 89.5711L93.7071 83.2071ZM28 83.5H93V81.5H28V83.5Z" fill="black"/>
<path d="M5.29289 81.7929C4.90237 82.1834 4.90237 82.8166 5.29289 83.2071L11.6569 89.5711C12.0474 89.9616 12.6805 89.9616 13.0711 89.5711C13.4616 89.1805 13.4616 88.5474 13.0711 88.1569L7.41422 82.5L13.0711 76.8431C13.4616 76.4526 13.4616 75.8195 13.0711 75.4289C12.6805 75.0384 12.0474 75.0384 11.6569 75.4289L5.29289 81.7929ZM71 81.5L6 81.5V83.5L71 83.5V81.5Z" fill="black"/>
<line x1="13" y1="50.25" x2="86" y2="50.25" stroke="black" stroke-width="1.5"/>
<line x1="13" y1="63.25" x2="86" y2="63.25" stroke="black" stroke-width="1.5"/>
<line x1="13" y1="76.25" x2="86" y2="76.25" stroke="black" stroke-width="1.5"/>
<path d="M93.7071 57.2071C94.0976 56.8166 94.0976 56.1834 93.7071 55.7929L87.3431 49.4289C86.9526 49.0384 86.3195 49.0384 85.9289 49.4289C85.5384 49.8195 85.5384 50.4526 85.9289 50.8431L91.5858 56.5L85.9289 62.1569C85.5384 62.5474 85.5384 63.1805 85.9289 63.5711C86.3195 63.9616 86.9526 63.9616 87.3431 63.5711L93.7071 57.2071ZM28 57.5H93V55.5H28V57.5Z" fill="black"/>
<path d="M5.29289 55.7929C4.90237 56.1834 4.90237 56.8166 5.29289 57.2071L11.6569 63.5711C12.0474 63.9616 12.6805 63.9616 13.0711 63.5711C13.4616 63.1805 13.4616 62.5474 13.0711 62.1569L7.41422 56.5L13.0711 50.8431C13.4616 50.4526 13.4616 49.8195 13.0711 49.4289C12.6805 49.0384 12.0474 49.0384 11.6569 49.4289L5.29289 55.7929ZM71 55.5L6 55.5V57.5L71 57.5V55.5Z" fill="black"/>
<path d="M93.7071 70.2071C94.0976 69.8166 94.0976 69.1834 93.7071 68.7929L87.3431 62.4289C86.9526 62.0384 86.3195 62.0384 85.9289 62.4289C85.5384 62.8195 85.5384 63.4526 85.9289 63.8431L91.5858 69.5L85.9289 75.1569C85.5384 75.5474 85.5384 76.1805 85.9289 76.5711C86.3195 76.9616 86.9526 76.9616 87.3431 76.5711L93.7071 70.2071ZM28 70.5H93V68.5H28V70.5Z" fill="black"/>
<path d="M5.29289 68.7929C4.90237 69.1834 4.90237 69.8166 5.29289 70.2071L11.6569 76.5711C12.0474 76.9616 12.6805 76.9616 13.0711 76.5711C13.4616 76.1805 13.4616 75.5474 13.0711 75.1569L7.41422 69.5L13.0711 63.8431C13.4616 63.4526 13.4616 62.8195 13.0711 62.4289C12.6805 62.0384 12.0474 62.0384 11.6569 62.4289L5.29289 68.7929ZM71 68.5L6 68.5V70.5L71 70.5V68.5Z" fill="black"/>
<path d="M93.7071 83.2071C94.0976 82.8166 94.0976 82.1834 93.7071 81.7929L87.3431 75.4289C86.9526 75.0384 86.3195 75.0384 85.9289 75.4289C85.5384 75.8195 85.5384 76.4526 85.9289 76.8431L91.5858 82.5L85.9289 88.1569C85.5384 88.5474 85.5384 89.1805 85.9289 89.5711C86.3195 89.9616 86.9526 89.9616 87.3431 89.5711L93.7071 83.2071ZM28 83.5H93V81.5H28V83.5Z" fill="black"/>
<path d="M5.29289 81.7929C4.90237 82.1834 4.90237 82.8166 5.29289 83.2071L11.6569 89.5711C12.0474 89.9616 12.6805 89.9616 13.0711 89.5711C13.4616 89.1805 13.4616 88.5474 13.0711 88.1569L7.41422 82.5L13.0711 76.8431C13.4616 76.4526 13.4616 75.8195 13.0711 75.4289C12.6805 75.0384 12.0474 75.0384 11.6569 75.4289L5.29289 81.7929ZM71 81.5L6 81.5V83.5L71 83.5V81.5Z" fill="black"/>
<line x1="13" y1="50.25" x2="86" y2="50.25" stroke="black" stroke-width="1.5"/>
<line x1="13" y1="63.25" x2="86" y2="63.25" stroke="black" stroke-width="1.5"/>
<line x1="13" y1="76.25" x2="86" y2="76.25" stroke="black" stroke-width="1.5"/>
<line x1="21.5" y1="11" x2="21.5" y2="14" stroke="black"/>
<line x1="21.5" y1="22" x2="21.5" y2="27" stroke="black"/>
<line x1="21.5" y1="35" x2="21.5" y2="40" stroke="black"/>
<line x1="21.5" y1="48" x2="21.5" y2="53" stroke="black"/>
<line x1="21.5" y1="60" x2="21.5" y2="65" stroke="black"/>
<line x1="21.5" y1="74" x2="21.5" y2="79" stroke="black"/>
<line x1="21.5" y1="86" x2="21.5" y2="89" stroke="black"/>
<line x1="76.5" y1="12" x2="76.5" y2="15" stroke="black"/>
<line x1="76.5" y1="23" x2="76.5" y2="28" stroke="black"/>
<line x1="76.5" y1="36" x2="76.5" y2="41" stroke="black"/>
<line x1="76.5" y1="49" x2="76.5" y2="54" stroke="black"/>
<line x1="76.5" y1="61" x2="76.5" y2="66" stroke="black"/>
<line x1="76.5" y1="75" x2="76.5" y2="80" stroke="black"/>
<line x1="76.5" y1="87" x2="76.5" y2="90" stroke="black"/>
</svg>
