<svg width="160" height="160" viewBox="0 0 160 160" fill="none" xmlns="http://www.w3.org/2000/svg">
<path d="M0 0H160V160H0V0Z" fill="white"/>
<path d="M29.7071 6.29289C29.3166 5.90237 28.6834 5.90237 28.2929 6.29289L21.9289 12.6569C21.5384 13.0474 21.5384 13.6805 21.9289 14.0711C22.3195 14.4616 22.9526 14.4616 23.3431 14.0711L29 8.41421L34.6569 14.0711C35.0474 14.4616 35.6805 14.4616 36.0711 14.0711C36.4616 13.6805 36.4616 13.0474 36.0711 12.6569L29.7071 6.29289ZM28.2929 103.707C28.6834 104.098 29.3166 104.098 29.7071 103.707L36.0711 97.3431C36.4616 96.9526 36.4616 96.3195 36.0711 95.9289C35.6805 95.5384 35.0474 95.5384 34.6569 95.9289L29 101.586L23.3431 95.9289C22.9526 95.5384 22.3195 95.5384 21.9289 95.9289C21.5384 96.3195 21.5384 96.9526 21.9289 97.3431L28.2929 103.707ZM28 7L28 103L30 103L30 7L28 7Z" fill="black"/>
<path d="M43.2929 115.293C42.9024 115.683 42.9024 116.317 43.2929 116.707L49.6569 123.071C50.0474 123.462 50.6805 123.462 51.0711 123.071C51.4616 122.681 51.4616 122.047 51.0711 121.657L45.4142 116L51.0711 110.343C51.4616 109.953 51.4616 109.319 51.0711 108.929C50.6805 108.538 50.0474 108.538 49.6569 108.929L43.2929 115.293ZM131.707 116.707C132.098 116.317 132.098 115.683 131.707 115.293L125.343 108.929C124.953 108.538 124.319 108.538 123.929 108.929C123.538 109.319 123.538 109.953 123.929 110.343L129.586 116L123.929 121.657C123.538 122.047 123.538 122.681 123.929 123.071C124.319 123.462 124.953 123.462 125.343 123.071L131.707 116.707ZM44 117H131V115H44V117Z" fill="black"/>
<rect x="12" y="132" width="130" height="21" stroke="black" stroke-width="2" stroke-linejoin="round"/>
<path d="M22 143C22 143.552 22.4477 144 23 144C23.5523 144 24 143.552 24 143H22ZM22 133V143H24V133H22Z" fill="black"/>
<path d="M43 143C43 143.552 43.4477 144 44 144C44.5523 144 45 143.552 45 143H43ZM43 133V143H45V133H43Z" fill="black"/>
<path d="M65 143C65 143.552 65.4477 144 66 144C66.5523 144 67 143.552 67 143H65ZM65 133V143H67V133H65Z" fill="black"/>
<path d="M86 143C86 143.552 86.4477 144 87 144C87.5523 144 88 143.552 88 143H86ZM86 133V143H88V133H86Z" fill="black"/>
<path d="M108 143C108 143.552 108.448 144 109 144C109.552 144 110 143.552 110 143H108ZM108 133V143H110V133H108Z" fill="black"/>
<path d="M130 143C130 143.552 130.448 144 131 144C131.552 144 132 143.552 132 143H130ZM130 133V143H132V133H130Z" fill="black"/>
<path d="M119 138C119 138.552 119.448 139 120 139C120.552 139 121 138.552 121 138H119ZM119 133V138H121V133H119Z" fill="black"/>
<path d="M97 138C97 138.552 97.4477 139 98 139C98.5523 139 99 138.552 99 138H97ZM97 133V138H99V133H97Z" fill="black"/>
<path d="M76 138C76 138.552 76.4477 139 77 139C77.5523 139 78 138.552 78 138H76ZM76 133V138H78V133H76Z" fill="black"/>
<path d="M54 138C54 138.552 54.4477 139 55 139C55.5523 139 56 138.552 56 138H54ZM54 133V138H56V133H54Z" fill="black"/>
<path d="M33 138C33 138.552 33.4477 139 34 139C34.5523 139 35 138.552 35 138H33ZM33 133V138H35V133H33Z" fill="black"/>
<path d="M47 5H137.451C139.404 5 140.988 6.58365 140.988 8.53718V8.53718C140.988 10.4907 139.404 12.0744 137.451 12.0744H47V5Z" stroke="black" stroke-width="2" stroke-linejoin="round"/>
<path d="M52 12H130V58H52V12Z" stroke="black" stroke-width="2" stroke-linejoin="round"/>
<path fill-rule="evenodd" clip-rule="evenodd" d="M50.0319 13.0744H50.5372C53.043 13.0744 55.0743 11.043 55.0743 8.53718C55.0743 6.03136 53.043 4 50.5372 4H50.0319V6H50.5372C51.9384 6 53.0743 7.13593 53.0743 8.53718C53.0743 9.93842 51.9384 11.0744 50.5372 11.0744H50.0319V13.0744Z" fill="black"/>
<path fill-rule="evenodd" clip-rule="evenodd" d="M58.1168 13.0744H58.6221C61.1279 13.0744 63.1593 11.043 63.1593 8.53718C63.1593 6.03136 61.1279 4 58.6221 4H58.1168V6H58.6221C60.0234 6 61.1593 7.13593 61.1593 8.53718C61.1593 9.93842 60.0234 11.0744 58.6221 11.0744H58.1168V13.0744Z" fill="black"/>
<path fill-rule="evenodd" clip-rule="evenodd" d="M129.871 13.0744H130.376C132.882 13.0744 134.913 11.043 134.913 8.53718C134.913 6.03136 132.882 4 130.376 4H129.871V6H130.376C131.778 6 132.913 7.13593 132.913 8.53718C132.913 9.93842 131.778 11.0744 130.376 11.0744H129.871V13.0744Z" fill="black"/>
<line x1="51.75" y1="58.75" x2="51.75" y2="102.25" stroke="black" stroke-width="1.5" stroke-linecap="round"/>
<line x1="57.75" y1="58.75" x2="57.75" y2="96.5417" stroke="black" stroke-width="1.5" stroke-linecap="round"/>
<path d="M57.75 96.5729L123.25 96.5729" stroke="black" stroke-width="1.5" stroke-linecap="round"/>
<path d="M52 102.281H129.75" stroke="black" stroke-width="1.5" stroke-linecap="round"/>
<path d="M129.75 58.75L129.75 102" stroke="black" stroke-width="1.5" stroke-linecap="round"/>
<line x1="123.75" y1="58.75" x2="123.75" y2="96.5417" stroke="black" stroke-width="1.5" stroke-linecap="round"/>
<line x1="89.75" y1="80.75" x2="89.75" y2="91.25" stroke="black" stroke-width="1.5" stroke-linecap="round"/>
<line x1="118.25" y1="64.75" x2="107.75" y2="64.75" stroke="black" stroke-width="1.5" stroke-linecap="round"/>
<line x1="73.25" y1="64.75" x2="62.75" y2="64.75" stroke="black" stroke-width="1.5" stroke-linecap="round"/>
<line x1="78.4853" y1="76.0607" x2="71.0607" y2="83.4853" stroke="black" stroke-width="1.5" stroke-linecap="round"/>
<line x1="0.75" y1="-0.75" x2="11.25" y2="-0.75" transform="matrix(0.707107 0.707107 0.707107 -0.707107 103 75)" stroke="black" stroke-width="1.5" stroke-linecap="round"/>
<path fill-rule="evenodd" clip-rule="evenodd" d="M79.2719 59C78.4574 60.6597 78 62.5264 78 64.5C78 71.4036 83.5964 77 90.5 77C97.4036 77 103 71.4036 103 64.5C103 62.5264 102.543 60.6597 101.728 59H99.446C100.431 60.5995 101 62.4834 101 64.5C101 70.299 96.299 75 90.5 75C84.701 75 80 70.299 80 64.5C80 62.4834 80.5685 60.5995 81.554 59H79.2719Z" fill="black"/>
</svg>
