<svg width="100" height="100" viewBox="0 0 100 100" fill="none" xmlns="http://www.w3.org/2000/svg">
<path d="M2 2H95V9H2V2Z" stroke="black" stroke-width="2" stroke-linejoin="round"/>
<line x1="5" y1="10" x2="5" y2="21" stroke="black" stroke-width="2" stroke-linecap="round"/>
<path d="M21 9.5L21.5 24.5L21.1695 35.077C21.0568 38.6829 20.5757 42.2678 19.7338 45.7759V45.7759C18.5836 50.5685 16.7696 55.1769 14.3444 59.4677L11.5 64.5" stroke="black" stroke-width="2"/>
<path d="M34.05 9L34.2579 12.342C34.7512 20.2728 34.3898 28.2336 33.1799 36.0871L32.9926 37.3024C32.6647 39.4307 32.1661 41.5291 31.5015 43.5774V43.5774C29.4335 49.9515 25.8023 55.7064 20.9393 60.317L16 65" stroke="black" stroke-width="2"/>
<path d="M46.75 9L46.8949 10.7706C47.6246 19.6861 46.6057 28.6584 43.8955 37.1833V37.1833C43.2996 39.0576 42.5438 40.8773 41.6364 42.6223L40.848 44.1386C37.9709 49.6713 34.1606 54.6661 29.5848 58.903L23 65" stroke="black" stroke-width="2"/>
<line x1="5" y1="10" x2="5" y2="99" stroke="black" stroke-width="2" stroke-linecap="round"/>
<path fill-rule="evenodd" clip-rule="evenodd" d="M6 72H23C25.2091 72 27 70.2091 27 68C27 65.7909 25.2091 64 23 64H6V65.5H23C24.3807 65.5 25.5 66.6193 25.5 68C25.5 69.3807 24.3807 70.5 23 70.5H6V72Z" fill="black"/>
<path d="M5 99H13.5M13.5 99H27.1175C30.5758 99 32.7039 95.2183 30.9092 92.2622V92.2622C27.9764 87.4318 25.5119 82.3322 23.5493 77.033L21.5 71.5H16L19.5 85L21.5 99H13.5ZM13.5 99V98.6473C13.5 89.5614 12.8315 80.4878 11.5 71.5V71.5" stroke="black" stroke-width="2"/>
<path d="M77 8.5L76.5 23.5L76.8305 34.077C76.9432 37.6829 77.4243 41.2678 78.2662 44.7759V44.7759C79.4164 49.5685 81.2304 54.1769 83.6556 58.4677L86.5 63.5" stroke="black" stroke-width="2"/>
<path d="M63.95 8L63.7421 11.342C63.2488 19.2728 63.6102 27.2336 64.8201 35.0871L65.0074 36.3024C65.3353 38.4307 65.8339 40.5291 66.4985 42.5774V42.5774C68.5665 48.9515 72.1977 54.7064 77.0607 59.317L82 64" stroke="black" stroke-width="2"/>
<path d="M51.25 8L51.1051 9.77059C50.3754 18.6861 51.3943 27.6584 54.1045 36.1833V36.1833C54.7004 38.0576 55.4562 39.8773 56.3636 41.6223L57.152 43.1386C60.0291 48.6713 63.8394 53.6661 68.4152 57.903L75 64" stroke="black" stroke-width="2"/>
<line x1="1" y1="-1" x2="90" y2="-1" transform="matrix(0 1 1 0 94 8)" stroke="black" stroke-width="2" stroke-linecap="round"/>
<path fill-rule="evenodd" clip-rule="evenodd" d="M92 71H75C72.7909 71 71 69.2091 71 67C71 64.7909 72.7909 63 75 63H92V64.5H75C73.6193 64.5 72.5 65.6193 72.5 67C72.5 68.3807 73.6193 69.5 75 69.5H92V71Z" fill="black"/>
<path d="M93 98H84.5M84.5 98H70.8825C67.4242 98 65.2961 94.2183 67.0908 91.2622V91.2622C70.0236 86.4318 72.4881 81.3322 74.4507 76.033L76.5 70.5H82L78.5 84L76.5 98H84.5ZM84.5 98V97.6473C84.5 88.5614 85.1685 79.4878 86.5 70.5V70.5" stroke="black" stroke-width="2"/>
</svg>
