<svg xmlns="http://www.w3.org/2000/svg" xmlns:xlink="http://www.w3.org/1999/xlink" width="48" zoomAndPan="magnify" viewBox="0 0 36 36.000001" height="48" preserveAspectRatio="xMidYMid meet" version="1.0"><defs><clipPath id="0e4be6ac40"><path d="M 11 22 L 28 22 L 28 33.429688 L 11 33.429688 Z M 11 22 " clip-rule="nonzero"/></clipPath><clipPath id="35997ee0d1"><path d="M 26 26 L 35.511719 26 L 35.511719 33 L 26 33 Z M 26 26 " clip-rule="nonzero"/></clipPath><clipPath id="50db6634db"><path d="M 8 1.320312 L 33 1.320312 L 33 15 L 8 15 Z M 8 1.320312 " clip-rule="nonzero"/></clipPath><clipPath id="846d524d18"><path d="M 11 1.320312 L 14 1.320312 L 14 12 L 11 12 Z M 11 1.320312 " clip-rule="nonzero"/></clipPath><clipPath id="7fe2fd9eb3"><path d="M 0.488281 3 L 6 3 L 6 6 L 0.488281 6 Z M 0.488281 3 " clip-rule="nonzero"/></clipPath></defs><g clip-path="url(#0e4be6ac40)"><path fill="#000000" d="M 14.257812 23.566406 C 13.476562 23.566406 12.757812 23.894531 12.28125 24.464844 C 11.792969 25.058594 11.601562 25.796875 11.753906 26.539062 L 12.824219 31.914062 C 12.917969 32.386719 13.335938 32.742188 13.796875 32.742188 L 24.847656 32.742188 C 25.304688 32.742188 25.722656 32.386719 25.820312 31.921875 L 26.890625 26.542969 C 27.039062 25.800781 26.847656 25.042969 26.363281 24.457031 C 25.890625 23.890625 25.171875 23.566406 24.382812 23.566406 Z M 24.847656 33.398438 L 13.796875 33.398438 C 13.015625 33.398438 12.332031 32.828125 12.179688 32.042969 L 11.105469 26.667969 C 10.917969 25.742188 11.160156 24.789062 11.773438 24.050781 C 12.371094 23.328125 13.277344 22.914062 14.257812 22.914062 L 24.382812 22.914062 C 25.371094 22.914062 26.277344 23.324219 26.871094 24.042969 C 27.480469 24.78125 27.726562 25.738281 27.539062 26.667969 L 26.464844 32.050781 C 26.308594 32.832031 25.628906 33.398438 24.847656 33.398438 " fill-opacity="1" fill-rule="nonzero"/></g><path fill="#000000" d="M 26.589844 26.84375 L 12.050781 26.84375 C 11.867188 26.84375 11.722656 26.699219 11.722656 26.515625 C 11.722656 26.335938 11.867188 26.1875 12.050781 26.1875 L 26.578125 26.1875 C 26.761719 26.1875 26.914062 26.335938 26.914062 26.515625 C 26.914062 26.699219 26.773438 26.84375 26.589844 26.84375 " fill-opacity="1" fill-rule="nonzero"/><path fill="#000000" d="M 20.644531 29.464844 L 18 29.464844 C 17.089844 29.464844 16.347656 28.730469 16.347656 27.828125 L 16.347656 26.515625 C 16.347656 26.335938 16.496094 26.1875 16.679688 26.1875 C 16.863281 26.1875 17.007812 26.335938 17.007812 26.515625 L 17.007812 27.828125 C 17.007812 28.371094 17.453125 28.808594 18 28.808594 L 20.644531 28.808594 C 21.191406 28.808594 21.636719 28.371094 21.636719 27.828125 L 21.636719 26.515625 C 21.636719 26.335938 21.78125 26.1875 21.964844 26.1875 C 22.148438 26.1875 22.296875 26.335938 22.296875 26.515625 L 22.296875 27.828125 C 22.296875 28.730469 21.554688 29.464844 20.644531 29.464844 " fill-opacity="1" fill-rule="nonzero"/><g clip-path="url(#35997ee0d1)"><path fill="#000000" d="M 35.183594 32.085938 L 30.558594 32.085938 C 29.644531 32.085938 28.90625 31.351562 28.90625 30.449219 C 28.90625 29.542969 29.644531 28.808594 30.558594 28.808594 L 31.878906 28.808594 C 32.425781 28.808594 32.871094 28.371094 32.871094 27.828125 C 32.871094 27.285156 32.425781 26.84375 31.878906 26.84375 L 27.253906 26.84375 C 27.070312 26.84375 26.921875 26.699219 26.921875 26.515625 C 26.921875 26.335938 27.070312 26.1875 27.253906 26.1875 L 31.878906 26.1875 C 32.789062 26.1875 33.53125 26.921875 33.53125 27.828125 C 33.53125 28.730469 32.789062 29.464844 31.878906 29.464844 L 30.558594 29.464844 C 30.007812 29.464844 29.566406 29.90625 29.566406 30.449219 C 29.566406 30.992188 30.007812 31.429688 30.558594 31.429688 L 35.183594 31.429688 C 35.367188 31.429688 35.511719 31.578125 35.511719 31.757812 C 35.511719 31.941406 35.367188 32.085938 35.183594 32.085938 " fill-opacity="1" fill-rule="nonzero"/></g><g clip-path="url(#50db6634db)"><path fill="#000000" d="M 31.542969 12.300781 L 31.550781 12.300781 Z M 11.832031 2.085938 C 11.371094 2.085938 10.953125 2.410156 10.859375 2.875 L 9.570312 9.300781 C 9.464844 9.835938 9.8125 10.355469 10.351562 10.457031 L 28.5 14.039062 C 29.105469 14.160156 29.722656 14.039062 30.234375 13.695312 C 30.746094 13.355469 31.097656 12.839844 31.21875 12.238281 L 31.992188 8.378906 C 32.113281 7.777344 31.988281 7.167969 31.644531 6.660156 C 31.304688 6.148438 30.78125 5.800781 30.175781 5.683594 L 12.027344 2.105469 C 11.960938 2.089844 11.898438 2.085938 11.832031 2.085938 Z M 28.957031 14.738281 C 28.761719 14.738281 28.566406 14.71875 28.371094 14.683594 L 10.222656 11.101562 C 9.789062 11.015625 9.414062 10.769531 9.171875 10.40625 C 8.925781 10.042969 8.839844 9.605469 8.921875 9.175781 L 10.210938 2.75 C 10.296875 2.320312 10.546875 1.949219 10.917969 1.707031 C 11.28125 1.464844 11.722656 1.375 12.15625 1.460938 L 30.304688 5.039062 C 31.082031 5.195312 31.757812 5.640625 32.195312 6.292969 C 32.636719 6.949219 32.796875 7.734375 32.640625 8.507812 L 31.867188 12.367188 C 31.710938 13.140625 31.265625 13.804688 30.601562 14.242188 C 30.109375 14.570312 29.539062 14.738281 28.957031 14.738281 " fill-opacity="1" fill-rule="nonzero"/></g><g clip-path="url(#846d524d18)"><path fill="#000000" d="M 11.582031 11.363281 C 11.5625 11.363281 11.539062 11.363281 11.519531 11.355469 C 11.339844 11.320312 11.222656 11.148438 11.257812 10.972656 L 13.0625 1.972656 C 13.097656 1.796875 13.277344 1.679688 13.453125 1.71875 C 13.628906 1.753906 13.746094 1.925781 13.710938 2.101562 L 11.90625 11.097656 C 11.875 11.253906 11.738281 11.363281 11.582031 11.363281 " fill-opacity="1" fill-rule="nonzero"/></g><path fill="#000000" d="M 9.25 9.566406 C 9.226562 9.566406 9.203125 9.566406 9.179688 9.5625 L 7.886719 9.304688 C 7.460938 9.222656 7.078125 8.96875 6.835938 8.609375 C 6.589844 8.246094 6.5 7.808594 6.585938 7.378906 L 7.359375 3.523438 C 7.539062 2.636719 8.402344 2.058594 9.304688 2.238281 L 10.601562 2.492188 C 10.777344 2.527344 10.894531 2.699219 10.863281 2.875 C 10.824219 3.054688 10.648438 3.167969 10.472656 3.136719 L 9.175781 2.875 C 8.644531 2.773438 8.117188 3.121094 8.007812 3.648438 L 7.238281 7.507812 C 7.1875 7.765625 7.238281 8.027344 7.382812 8.246094 C 7.527344 8.460938 7.757812 8.613281 8.015625 8.664062 L 9.308594 8.921875 C 9.492188 8.953125 9.605469 9.128906 9.570312 9.304688 C 9.539062 9.460938 9.402344 9.566406 9.25 9.566406 " fill-opacity="1" fill-rule="nonzero"/><path fill="#000000" d="M 6.910156 7.769531 C 6.890625 7.769531 6.867188 7.769531 6.847656 7.761719 L 4.253906 7.25 C 4.167969 7.234375 4.09375 7.183594 4.042969 7.113281 C 3.996094 7.042969 3.976562 6.953125 3.996094 6.867188 L 4.769531 3.011719 C 4.785156 2.925781 4.835938 2.851562 4.910156 2.800781 C 4.980469 2.753906 5.070312 2.734375 5.15625 2.753906 L 7.75 3.265625 C 7.929688 3.300781 8.046875 3.472656 8.007812 3.648438 C 7.972656 3.828125 7.796875 3.941406 7.621094 3.910156 L 5.351562 3.460938 L 4.707031 6.671875 L 6.976562 7.121094 C 7.15625 7.15625 7.269531 7.328125 7.238281 7.507812 C 7.203125 7.660156 7.066406 7.769531 6.910156 7.769531 " fill-opacity="1" fill-rule="nonzero"/><g clip-path="url(#7fe2fd9eb3)"><path fill="#000000" d="M 4.707031 5.332031 C 4.683594 5.332031 4.664062 5.328125 4.640625 5.324219 L 0.753906 4.554688 C 0.574219 4.523438 0.457031 4.347656 0.496094 4.171875 C 0.527344 3.992188 0.703125 3.878906 0.882812 3.917969 L 4.769531 4.679688 C 4.949219 4.71875 5.066406 4.890625 5.03125 5.066406 C 5 5.222656 4.859375 5.332031 4.707031 5.332031 " fill-opacity="1" fill-rule="nonzero"/></g><path fill="#000000" d="M 27.140625 14.429688 C 27.117188 14.429688 27.097656 14.429688 27.074219 14.425781 C 26.894531 14.390625 26.78125 14.214844 26.816406 14.039062 L 28.621094 5.042969 C 28.652344 4.867188 28.832031 4.746094 29.007812 4.785156 C 29.1875 4.820312 29.300781 4.992188 29.265625 5.171875 L 27.464844 14.167969 C 27.433594 14.324219 27.292969 14.429688 27.140625 14.429688 " fill-opacity="1" fill-rule="nonzero"/><path fill="#000000" d="M 12.871094 4.9375 C 12.851562 4.9375 12.828125 4.933594 12.804688 4.929688 L 10.214844 4.421875 C 10.035156 4.382812 9.917969 4.210938 9.957031 4.035156 C 9.988281 3.855469 10.167969 3.738281 10.34375 3.773438 L 12.933594 4.289062 C 13.113281 4.324219 13.230469 4.496094 13.195312 4.671875 C 13.164062 4.828125 13.023438 4.9375 12.871094 4.9375 " fill-opacity="1" fill-rule="nonzero"/><path fill="#000000" d="M 12.226562 8.148438 C 12.203125 8.148438 12.183594 8.148438 12.160156 8.144531 L 9.570312 7.632812 C 9.390625 7.597656 9.273438 7.425781 9.308594 7.246094 C 9.347656 7.070312 9.523438 6.953125 9.699219 6.992188 L 12.289062 7.503906 C 12.46875 7.535156 12.585938 7.710938 12.550781 7.886719 C 12.519531 8.042969 12.378906 8.148438 12.226562 8.148438 " fill-opacity="1" fill-rule="nonzero"/><path fill="#000000" d="M 26.589844 7.839844 C 26.566406 7.839844 26.542969 7.835938 26.519531 7.832031 L 14.625 5.210938 C 14.445312 5.171875 14.335938 4.996094 14.371094 4.820312 C 14.414062 4.644531 14.585938 4.53125 14.769531 4.570312 L 26.664062 7.191406 C 26.84375 7.234375 26.953125 7.40625 26.914062 7.585938 C 26.878906 7.738281 26.742188 7.839844 26.589844 7.839844 " fill-opacity="1" fill-rule="nonzero"/><path fill="#000000" d="M 23.285156 23.566406 C 23.105469 23.566406 22.957031 23.421875 22.957031 23.238281 L 22.957031 13.410156 C 22.957031 13.230469 23.105469 13.082031 23.285156 13.082031 C 23.46875 13.082031 23.617188 13.230469 23.617188 13.410156 L 23.617188 23.238281 C 23.617188 23.421875 23.46875 23.566406 23.285156 23.566406 " fill-opacity="1" fill-rule="nonzero"/><path fill="#000000" d="M 15.355469 23.566406 C 15.171875 23.566406 15.027344 23.421875 15.027344 23.238281 L 15.027344 12.101562 C 15.027344 11.917969 15.171875 11.773438 15.355469 11.773438 C 15.539062 11.773438 15.6875 11.917969 15.6875 12.101562 L 15.6875 23.238281 C 15.6875 23.421875 15.539062 23.566406 15.355469 23.566406 " fill-opacity="1" fill-rule="nonzero"/><path fill="#000000" d="M 15.355469 18.324219 C 13.71875 18.324219 12.382812 17 12.382812 15.375 L 12.382812 11.445312 C 12.382812 11.261719 12.53125 11.117188 12.714844 11.117188 C 12.894531 11.117188 13.042969 11.261719 13.042969 11.445312 L 13.042969 15.375 C 13.042969 16.640625 14.082031 17.667969 15.355469 17.667969 C 15.539062 17.667969 15.6875 17.816406 15.6875 17.996094 C 15.6875 18.179688 15.539062 18.324219 15.355469 18.324219 " fill-opacity="1" fill-rule="nonzero"/><path fill="#000000" d="M 18 21.601562 C 17.816406 21.601562 17.667969 21.457031 17.667969 21.273438 L 17.667969 14.722656 C 17.667969 14.539062 17.816406 14.394531 18 14.394531 C 18.183594 14.394531 18.332031 14.539062 18.332031 14.722656 L 18.332031 21.273438 C 18.332031 21.457031 18.183594 21.601562 18 21.601562 " fill-opacity="1" fill-rule="nonzero"/></svg>