<svg xmlns="http://www.w3.org/2000/svg" xmlns:xlink="http://www.w3.org/1999/xlink" width="48" zoomAndPan="magnify" viewBox="0 0 36 36.000001" height="48" preserveAspectRatio="xMidYMid meet" version="1.0"><defs><clipPath id="9a34d8c372"><path d="M 5 12 L 31 12 L 31 27.957031 L 5 27.957031 Z M 5 12 " clip-rule="nonzero"/></clipPath><clipPath id="1af2ddbcf2"><path d="M 29 13 L 32.902344 13 L 32.902344 17 L 29 17 Z M 29 13 " clip-rule="nonzero"/></clipPath><clipPath id="e98ce8a6c7"><path d="M 20 6.792969 L 23 6.792969 L 23 11 L 20 11 Z M 20 6.792969 " clip-rule="nonzero"/></clipPath><clipPath id="1f515ed563"><path d="M 13 6.792969 L 16 6.792969 L 16 11 L 13 11 Z M 13 6.792969 " clip-rule="nonzero"/></clipPath></defs><g clip-path="url(#9a34d8c372)"><path fill="#000000" d="M 6.375 20.058594 C 8.574219 24.226562 13.105469 26.902344 17.996094 26.902344 C 22.878906 26.902344 27.410156 24.226562 29.613281 20.058594 C 27.410156 15.894531 22.878906 13.214844 17.996094 13.214844 C 13.105469 13.214844 8.578125 15.894531 6.375 20.058594 Z M 17.996094 27.957031 C 12.617188 27.957031 7.632812 24.949219 5.300781 20.289062 C 5.226562 20.148438 5.226562 19.972656 5.300781 19.824219 C 7.636719 15.171875 12.617188 12.164062 17.996094 12.164062 C 23.367188 12.164062 28.355469 15.171875 30.691406 19.824219 C 30.765625 19.972656 30.765625 20.148438 30.691406 20.292969 C 28.355469 24.949219 23.371094 27.957031 17.996094 27.957031 " fill-opacity="1" fill-rule="nonzero"/></g><path fill="#000000" d="M 17.996094 16.375 C 15.945312 16.375 14.277344 18.027344 14.277344 20.058594 C 14.277344 22.09375 15.945312 23.746094 17.996094 23.746094 C 20.042969 23.746094 21.714844 22.09375 21.714844 20.058594 C 21.714844 18.027344 20.042969 16.375 17.996094 16.375 Z M 17.996094 24.796875 C 15.359375 24.796875 13.214844 22.671875 13.214844 20.058594 C 13.214844 17.449219 15.359375 15.324219 17.996094 15.324219 C 20.628906 15.324219 22.777344 17.449219 22.777344 20.058594 C 22.777344 22.671875 20.628906 24.796875 17.996094 24.796875 " fill-opacity="1" fill-rule="nonzero"/><g clip-path="url(#1af2ddbcf2)"><path fill="#000000" d="M 30.179688 16.320312 C 30.027344 16.320312 29.871094 16.257812 29.769531 16.128906 C 29.582031 15.902344 29.617188 15.570312 29.847656 15.386719 L 32 13.648438 C 32.230469 13.46875 32.566406 13.5 32.753906 13.726562 C 32.933594 13.953125 32.902344 14.285156 32.671875 14.46875 L 30.515625 16.207031 C 30.414062 16.285156 30.300781 16.320312 30.179688 16.320312 " fill-opacity="1" fill-rule="nonzero"/></g><path fill="#000000" d="M 5.808594 16.320312 C 5.691406 16.320312 5.574219 16.285156 5.472656 16.207031 L 3.316406 14.46875 C 3.085938 14.285156 3.054688 13.953125 3.242188 13.726562 C 3.421875 13.5 3.761719 13.46875 3.988281 13.648438 L 6.140625 15.386719 C 6.371094 15.570312 6.40625 15.902344 6.222656 16.128906 C 6.117188 16.257812 5.964844 16.320312 5.808594 16.320312 " fill-opacity="1" fill-rule="nonzero"/><path fill="#000000" d="M 26.1875 12.859375 C 26.078125 12.859375 25.972656 12.824219 25.875 12.761719 C 25.640625 12.589844 25.585938 12.261719 25.75 12.027344 L 27.390625 9.753906 C 27.558594 9.515625 27.890625 9.460938 28.128906 9.628906 C 28.371094 9.800781 28.421875 10.128906 28.253906 10.363281 L 26.617188 12.636719 C 26.515625 12.78125 26.347656 12.859375 26.1875 12.859375 " fill-opacity="1" fill-rule="nonzero"/><path fill="#000000" d="M 9.800781 12.859375 C 9.636719 12.859375 9.472656 12.78125 9.371094 12.636719 L 7.734375 10.363281 C 7.566406 10.128906 7.621094 9.800781 7.859375 9.628906 C 8.097656 9.460938 8.429688 9.515625 8.597656 9.753906 L 10.238281 12.027344 C 10.402344 12.261719 10.351562 12.589844 10.113281 12.761719 C 10.019531 12.824219 9.910156 12.859375 9.800781 12.859375 " fill-opacity="1" fill-rule="nonzero"/><g clip-path="url(#e98ce8a6c7)"><path fill="#000000" d="M 20.855469 10.847656 C 20.804688 10.847656 20.753906 10.839844 20.699219 10.828125 C 20.421875 10.746094 20.261719 10.453125 20.34375 10.171875 L 21.203125 7.277344 C 21.285156 7 21.582031 6.839844 21.863281 6.921875 C 22.144531 7.003906 22.304688 7.292969 22.222656 7.574219 L 21.359375 10.46875 C 21.292969 10.699219 21.082031 10.847656 20.855469 10.847656 " fill-opacity="1" fill-rule="nonzero"/></g><g clip-path="url(#1f515ed563)"><path fill="#000000" d="M 15.136719 10.847656 C 14.90625 10.847656 14.695312 10.699219 14.628906 10.46875 L 13.765625 7.574219 C 13.683594 7.292969 13.84375 7.003906 14.125 6.921875 C 14.414062 6.839844 14.703125 7 14.785156 7.277344 L 15.644531 10.171875 C 15.730469 10.453125 15.566406 10.746094 15.285156 10.828125 C 15.234375 10.839844 15.183594 10.847656 15.136719 10.847656 " fill-opacity="1" fill-rule="nonzero"/></g></svg>