<svg xmlns="http://www.w3.org/2000/svg" xmlns:xlink="http://www.w3.org/1999/xlink" width="48" zoomAndPan="magnify" viewBox="0 0 36 36.000001" height="48" preserveAspectRatio="xMidYMid meet" version="1.0"><defs><clipPath id="a206f770a3"><path d="M 5.675781 5.191406 L 30.488281 5.191406 L 30.488281 30 L 5.675781 30 Z M 5.675781 5.191406 " clip-rule="nonzero"/></clipPath></defs><g clip-path="url(#a206f770a3)"><path fill="#000000" d="M 18.082031 5.191406 C 11.242188 5.191406 5.675781 10.753906 5.675781 17.597656 C 5.675781 24.4375 11.242188 30 18.082031 30 C 24.921875 30 30.488281 24.4375 30.488281 17.597656 C 30.488281 10.753906 24.921875 5.191406 18.082031 5.191406 Z M 6.667969 17.597656 C 6.667969 11.304688 11.789062 6.183594 18.082031 6.183594 C 24.375 6.183594 29.496094 11.304688 29.496094 17.597656 C 29.496094 20.058594 28.707031 22.34375 27.375 24.210938 C 27.371094 24.203125 27.367188 24.195312 27.363281 24.1875 L 20.472656 17.464844 C 20.757812 16.011719 20.304688 14.492188 19.25 13.441406 C 18.140625 12.332031 16.5625 11.890625 15.03125 12.265625 C 14.855469 12.308594 14.71875 12.441406 14.671875 12.613281 C 14.621094 12.789062 14.671875 12.972656 14.796875 13.097656 L 15.847656 14.148438 L 15.382812 15.886719 L 13.644531 16.355469 L 12.59375 15.304688 C 12.464844 15.175781 12.28125 15.128906 12.109375 15.175781 C 11.933594 15.226562 11.800781 15.363281 11.761719 15.535156 C 11.386719 17.070312 11.824219 18.648438 12.933594 19.757812 C 13.988281 20.808594 15.503906 21.261719 16.957031 20.976562 L 23.472656 27.652344 C 21.867188 28.515625 20.03125 29.007812 18.082031 29.007812 C 11.789062 29.007812 6.667969 23.890625 6.667969 17.597656 Z M 24.347656 27.128906 L 17.472656 20.085938 C 17.347656 19.957031 17.164062 19.90625 16.988281 19.953125 C 15.792969 20.269531 14.507812 19.929688 13.636719 19.054688 C 13.007812 18.425781 12.65625 17.601562 12.625 16.738281 L 13.144531 17.257812 C 13.269531 17.382812 13.453125 17.433594 13.621094 17.386719 L 15.914062 16.773438 C 16.085938 16.726562 16.21875 16.59375 16.265625 16.421875 L 16.878906 14.128906 C 16.925781 13.957031 16.875 13.777344 16.75 13.648438 L 16.230469 13.128906 C 17.09375 13.160156 17.917969 13.515625 18.546875 14.144531 C 19.421875 15.015625 19.765625 16.300781 19.445312 17.496094 C 19.398438 17.667969 19.449219 17.855469 19.578125 17.980469 L 26.667969 24.898438 C 26.699219 24.929688 26.742188 24.949219 26.78125 24.972656 C 26.078125 25.800781 25.257812 26.527344 24.347656 27.128906 Z M 24.347656 27.128906 " fill-opacity="1" fill-rule="nonzero"/></g></svg>