<svg xmlns="http://www.w3.org/2000/svg" xmlns:xlink="http://www.w3.org/1999/xlink" width="48" zoomAndPan="magnify" viewBox="0 0 36 36.000001" height="48" preserveAspectRatio="xMidYMid meet" version="1.0"><defs><clipPath id="deb4976780"><path d="M 9.570312 4.695312 L 26.355469 4.695312 L 26.355469 30.234375 L 9.570312 30.234375 Z M 9.570312 4.695312 " clip-rule="nonzero"/></clipPath></defs><g clip-path="url(#deb4976780)"><path fill="#000000" d="M 17.964844 28.566406 L 24.929688 15.519531 C 25.0625 15.140625 25.160156 14.746094 25.230469 14.347656 C 25.300781 13.945312 25.335938 13.527344 25.335938 13.101562 C 25.335938 11.066406 24.507812 9.21875 23.175781 7.886719 C 21.839844 6.550781 20 5.726562 17.964844 5.726562 C 15.925781 5.726562 14.085938 6.550781 12.75 7.886719 C 11.417969 9.21875 10.59375 11.066406 10.59375 13.101562 C 10.59375 13.527344 10.625 13.945312 10.695312 14.347656 C 10.765625 14.746094 10.863281 15.140625 10.996094 15.519531 Z M 17.964844 8.515625 C 19.253906 8.515625 20.421875 9.039062 21.261719 9.886719 C 22.109375 10.730469 22.636719 11.894531 22.636719 13.1875 C 22.636719 13.453125 22.613281 13.714844 22.566406 13.972656 C 22.519531 14.234375 22.457031 14.488281 22.371094 14.734375 C 22.046875 15.65625 21.441406 16.449219 20.65625 17.003906 C 19.894531 17.539062 18.964844 17.855469 17.964844 17.855469 C 16.960938 17.855469 16.03125 17.539062 15.269531 17.003906 C 14.484375 16.449219 13.886719 15.65625 13.5625 14.734375 L 13.554688 14.742188 C 13.46875 14.492188 13.40625 14.238281 13.359375 13.972656 C 13.3125 13.714844 13.292969 13.453125 13.292969 13.1875 C 13.292969 11.894531 13.816406 10.730469 14.664062 9.886719 C 15.507812 9.039062 16.671875 8.515625 17.964844 8.515625 Z M 20.546875 10.601562 C 19.882812 9.945312 18.972656 9.535156 17.964844 9.535156 C 16.953125 9.535156 16.042969 9.945312 15.378906 10.601562 C 14.722656 11.265625 14.3125 12.179688 14.3125 13.1875 C 14.3125 13.402344 14.328125 13.609375 14.363281 13.804688 C 14.398438 14.007812 14.449219 14.210938 14.515625 14.398438 C 14.769531 15.121094 15.242188 15.738281 15.851562 16.171875 C 16.445312 16.59375 17.171875 16.839844 17.964844 16.839844 C 18.753906 16.839844 19.480469 16.59375 20.074219 16.171875 C 20.683594 15.738281 21.160156 15.121094 21.410156 14.398438 C 21.476562 14.210938 21.527344 14.011719 21.5625 13.804688 C 21.597656 13.609375 21.613281 13.402344 21.613281 13.1875 C 21.613281 12.179688 21.203125 11.265625 20.546875 10.601562 Z M 25.847656 15.953125 L 18.414062 29.875 C 18.367188 29.96875 18.296875 30.042969 18.199219 30.089844 C 17.957031 30.222656 17.644531 30.128906 17.511719 29.882812 L 10.097656 15.988281 C 10.078125 15.953125 10.0625 15.921875 10.050781 15.882812 C 9.894531 15.445312 9.773438 14.984375 9.691406 14.515625 C 9.617188 14.046875 9.570312 13.582031 9.570312 13.101562 C 9.570312 10.78125 10.511719 8.6875 12.035156 7.164062 C 13.550781 5.644531 15.644531 4.707031 17.964844 4.707031 C 20.28125 4.707031 22.375 5.644531 23.890625 7.164062 C 25.414062 8.6875 26.355469 10.78125 26.355469 13.101562 C 26.355469 13.582031 26.308594 14.046875 26.234375 14.515625 C 26.152344 14.984375 26.03125 15.445312 25.875 15.882812 C 25.871094 15.90625 25.859375 15.929688 25.847656 15.953125 Z M 25.847656 15.953125 " fill-opacity="1" fill-rule="nonzero"/></g></svg>