<svg xmlns="http://www.w3.org/2000/svg" xmlns:xlink="http://www.w3.org/1999/xlink" width="48" zoomAndPan="magnify" viewBox="0 0 36 36.000001" height="48" preserveAspectRatio="xMidYMid meet" version="1.0"><defs><clipPath id="cf77f71345"><path d="M 0.488281 6.851562 L 22 6.851562 L 22 28.015625 L 0.488281 28.015625 Z M 0.488281 6.851562 " clip-rule="nonzero"/></clipPath><clipPath id="5002f9af30"><path d="M 21 22 L 35.511719 22 L 35.511719 28.015625 L 21 28.015625 Z M 21 22 " clip-rule="nonzero"/></clipPath><clipPath id="1c829954a7"><path d="M 22 25 L 24 25 L 24 28.015625 L 22 28.015625 Z M 22 25 " clip-rule="nonzero"/></clipPath><clipPath id="cd8969c011"><path d="M 24 25 L 25 25 L 25 28.015625 L 24 28.015625 Z M 24 25 " clip-rule="nonzero"/></clipPath><clipPath id="6963e8a186"><path d="M 25 24 L 27 24 L 27 28.015625 L 25 28.015625 Z M 25 24 " clip-rule="nonzero"/></clipPath><clipPath id="4d4666bf06"><path d="M 27 25 L 28 25 L 28 28.015625 L 27 28.015625 Z M 27 25 " clip-rule="nonzero"/></clipPath><clipPath id="7b6d9a24d6"><path d="M 28 25 L 30 25 L 30 28.015625 L 28 28.015625 Z M 28 25 " clip-rule="nonzero"/></clipPath><clipPath id="f0b84c5a31"><path d="M 31 25 L 33 25 L 33 28.015625 L 31 28.015625 Z M 31 25 " clip-rule="nonzero"/></clipPath><clipPath id="fc4796f5dc"><path d="M 33 25 L 35 25 L 35 28.015625 L 33 28.015625 Z M 33 25 " clip-rule="nonzero"/></clipPath><clipPath id="849b21dd21"><path d="M 30 24 L 32 24 L 32 28.015625 L 30 28.015625 Z M 30 24 " clip-rule="nonzero"/></clipPath><clipPath id="db52245399"><path d="M 34 19 L 35.511719 19 L 35.511719 23 L 34 23 Z M 34 19 " clip-rule="nonzero"/></clipPath></defs><g clip-path="url(#cf77f71345)"><path fill="#000000" d="M 21.558594 28.011719 L 11.136719 28.011719 C 5.265625 28.011719 0.488281 23.269531 0.488281 17.421875 C 0.488281 11.578125 5.207031 6.851562 11.320312 6.851562 C 17.191406 6.851562 21.96875 11.597656 21.96875 17.421875 L 21.96875 27.605469 C 21.96875 27.832031 21.785156 28.011719 21.558594 28.011719 Z M 11.136719 7.667969 C 5.71875 7.667969 1.308594 12.046875 1.308594 17.421875 C 1.308594 22.820312 5.71875 27.199219 11.136719 27.199219 L 21.148438 27.199219 L 21.148438 17.421875 C 21.148438 12.027344 16.800781 7.667969 11.136719 7.667969 Z M 11.136719 7.667969 " fill-opacity="1" fill-rule="evenodd"/></g><g clip-path="url(#5002f9af30)"><path fill="#000000" d="M 35.101562 28.011719 L 21.558594 28.011719 C 21.335938 28.011719 21.148438 27.832031 21.148438 27.605469 L 21.148438 22.414062 C 21.148438 22.1875 21.335938 22.003906 21.558594 22.003906 L 35.101562 22.003906 C 35.328125 22.003906 35.511719 22.1875 35.511719 22.414062 L 35.511719 27.605469 C 35.511719 27.832031 35.328125 28.011719 35.101562 28.011719 Z M 21.96875 27.199219 L 34.691406 27.199219 L 34.691406 22.820312 L 21.96875 22.820312 Z M 21.96875 27.199219 " fill-opacity="1" fill-rule="evenodd"/></g><path fill="#000000" d="M 11.238281 23.859375 C 7.648438 23.859375 4.753906 20.988281 4.753906 17.421875 C 4.753906 13.878906 7.648438 10.988281 11.238281 10.988281 C 14.808594 10.988281 17.722656 13.878906 17.722656 17.421875 C 17.722656 20.988281 14.808594 23.859375 11.238281 23.859375 Z M 11.238281 11.800781 C 8.097656 11.800781 5.574219 14.328125 5.574219 17.421875 C 5.574219 20.539062 8.097656 23.042969 11.238281 23.042969 C 14.359375 23.042969 16.902344 20.539062 16.902344 17.421875 C 16.902344 14.328125 14.359375 11.800781 11.238281 11.800781 Z M 11.238281 11.800781 " fill-opacity="1" fill-rule="evenodd"/><path fill="#000000" d="M 11.238281 22.3125 C 8.507812 22.3125 6.3125 20.132812 6.3125 17.421875 C 6.3125 14.734375 8.507812 12.554688 11.238281 12.554688 C 13.949219 12.554688 16.144531 14.734375 16.144531 17.421875 C 16.144531 20.132812 13.949219 22.3125 11.238281 22.3125 Z M 11.238281 13.371094 C 8.960938 13.371094 7.136719 15.183594 7.136719 17.421875 C 7.136719 19.683594 8.960938 21.496094 11.238281 21.496094 C 13.496094 21.496094 15.320312 19.683594 15.320312 17.421875 C 15.320312 15.183594 13.496094 13.371094 11.238281 13.371094 Z M 11.238281 13.371094 " fill-opacity="1" fill-rule="evenodd"/><path fill="#000000" d="M 21.292969 15.550781 C 21.109375 15.550781 20.945312 15.425781 20.902344 15.222656 C 20.429688 13.269531 19.386719 11.496094 17.847656 10.152344 C 17.601562 9.929688 17.660156 9.441406 18.175781 9.441406 C 19.386719 9.441406 21.746094 9.949219 23.960938 13.351562 C 24.085938 13.53125 24.042969 13.777344 23.859375 13.898438 C 23.488281 14.144531 21.558594 15.550781 21.292969 15.550781 Z M 19.261719 10.398438 C 20.328125 11.578125 21.109375 12.964844 21.558594 14.46875 L 23.058594 13.472656 C 21.683594 11.476562 20.308594 10.703125 19.261719 10.398438 Z M 19.261719 10.398438 " fill-opacity="1" fill-rule="evenodd"/><g clip-path="url(#1c829954a7)"><path fill="#000000" d="M 22.976562 28.011719 C 22.730469 28.011719 22.566406 27.832031 22.566406 27.605469 L 22.566406 26.242188 C 22.566406 25.710938 23.386719 25.710938 23.386719 26.242188 L 23.386719 27.605469 C 23.386719 27.832031 23.203125 28.011719 22.976562 28.011719 Z M 22.976562 28.011719 " fill-opacity="1" fill-rule="evenodd"/></g><g clip-path="url(#cd8969c011)"><path fill="#000000" d="M 24.496094 28.011719 C 24.269531 28.011719 24.085938 27.832031 24.085938 27.605469 L 24.085938 26.242188 C 24.085938 25.710938 24.90625 25.710938 24.90625 26.242188 L 24.90625 27.605469 C 24.90625 27.832031 24.71875 28.011719 24.496094 28.011719 Z M 24.496094 28.011719 " fill-opacity="1" fill-rule="evenodd"/></g><g clip-path="url(#6963e8a186)"><path fill="#000000" d="M 26.035156 28.011719 C 25.808594 28.011719 25.621094 27.832031 25.621094 27.605469 L 25.621094 24.671875 C 25.621094 24.144531 26.445312 24.144531 26.445312 24.671875 L 26.445312 27.605469 C 26.445312 27.832031 26.257812 28.011719 26.035156 28.011719 Z M 26.035156 28.011719 " fill-opacity="1" fill-rule="evenodd"/></g><g clip-path="url(#4d4666bf06)"><path fill="#000000" d="M 27.574219 28.011719 C 27.347656 28.011719 27.160156 27.832031 27.160156 27.605469 L 27.160156 26.242188 C 27.160156 25.710938 27.984375 25.710938 27.984375 26.242188 L 27.984375 27.605469 C 27.984375 27.832031 27.796875 28.011719 27.574219 28.011719 Z M 27.574219 28.011719 " fill-opacity="1" fill-rule="evenodd"/></g><g clip-path="url(#7b6d9a24d6)"><path fill="#000000" d="M 29.089844 28.011719 C 28.863281 28.011719 28.679688 27.832031 28.679688 27.605469 L 28.679688 26.242188 C 28.679688 25.710938 29.5 25.710938 29.5 26.242188 L 29.5 27.605469 C 29.5 27.832031 29.316406 28.011719 29.089844 28.011719 Z M 29.089844 28.011719 " fill-opacity="1" fill-rule="evenodd"/></g><g clip-path="url(#f0b84c5a31)"><path fill="#000000" d="M 32.167969 28.011719 C 31.941406 28.011719 31.757812 27.832031 31.757812 27.605469 L 31.757812 26.242188 C 31.757812 25.710938 32.578125 25.710938 32.578125 26.242188 L 32.578125 27.605469 C 32.578125 27.832031 32.394531 28.011719 32.167969 28.011719 Z M 32.167969 28.011719 " fill-opacity="1" fill-rule="evenodd"/></g><g clip-path="url(#fc4796f5dc)"><path fill="#000000" d="M 33.6875 28.011719 C 33.460938 28.011719 33.277344 27.832031 33.277344 27.605469 L 33.277344 26.242188 C 33.277344 25.710938 34.097656 25.710938 34.097656 26.242188 L 34.097656 27.605469 C 34.097656 27.832031 33.914062 28.011719 33.6875 28.011719 Z M 33.6875 28.011719 " fill-opacity="1" fill-rule="evenodd"/></g><g clip-path="url(#849b21dd21)"><path fill="#000000" d="M 30.628906 28.011719 C 30.402344 28.011719 30.21875 27.832031 30.21875 27.605469 L 30.21875 24.671875 C 30.21875 24.144531 31.039062 24.144531 31.039062 24.671875 L 31.039062 27.605469 C 31.039062 27.832031 30.855469 28.011719 30.628906 28.011719 Z M 30.628906 28.011719 " fill-opacity="1" fill-rule="evenodd"/></g><g clip-path="url(#db52245399)"><path fill="#000000" d="M 35.101562 22.820312 C 34.878906 22.820312 34.691406 22.636719 34.691406 22.414062 L 34.691406 19.988281 C 34.691406 19.460938 35.511719 19.460938 35.511719 19.988281 L 35.511719 22.414062 C 35.511719 22.636719 35.328125 22.820312 35.101562 22.820312 Z M 35.101562 22.820312 " fill-opacity="1" fill-rule="evenodd"/></g></svg>