<svg xmlns="http://www.w3.org/2000/svg" xmlns:xlink="http://www.w3.org/1999/xlink" width="48" zoomAndPan="magnify" viewBox="0 0 36 36.000001" height="48" preserveAspectRatio="xMidYMid meet" version="1.0"><defs><clipPath id="da7a1e6fe6"><path d="M 2.398438 29 L 33.777344 29 L 33.777344 35.027344 L 2.398438 35.027344 Z M 2.398438 29 " clip-rule="nonzero"/></clipPath></defs><path fill="#000000" d="M 10.722656 2.550781 L 30.574219 2.550781 L 30.574219 0.640625 L 10.722656 0.640625 Z M 30.894531 3.1875 L 10.402344 3.1875 C 10.226562 3.1875 10.082031 3.046875 10.082031 2.871094 L 10.082031 0.324219 C 10.082031 0.148438 10.226562 0.00390625 10.402344 0.00390625 L 30.894531 0.00390625 C 31.074219 0.00390625 31.214844 0.148438 31.214844 0.324219 L 31.214844 2.871094 C 31.214844 3.046875 31.074219 3.1875 30.894531 3.1875 " fill-opacity="1" fill-rule="nonzero"/><path fill="#000000" d="M 12.003906 21.652344 L 26.734375 21.652344 L 26.734375 5.734375 L 12.003906 5.734375 Z M 27.054688 22.289062 L 11.683594 22.289062 C 11.507812 22.289062 11.363281 22.148438 11.363281 21.96875 L 11.363281 5.417969 C 11.363281 5.242188 11.507812 5.097656 11.683594 5.097656 L 27.054688 5.097656 C 27.230469 5.097656 27.371094 5.242188 27.371094 5.417969 L 27.371094 21.96875 C 27.371094 22.148438 27.230469 22.289062 27.054688 22.289062 " fill-opacity="1" fill-rule="nonzero"/><path fill="#000000" d="M 29.613281 19.742188 C 29.4375 19.742188 29.292969 19.601562 29.292969 19.421875 L 29.292969 2.871094 C 29.292969 2.695312 29.4375 2.550781 29.613281 2.550781 C 29.792969 2.550781 29.933594 2.695312 29.933594 2.871094 L 29.933594 19.421875 C 29.933594 19.601562 29.792969 19.742188 29.613281 19.742188 " fill-opacity="1" fill-rule="nonzero"/><path fill="#000000" d="M 24.492188 22.289062 C 24.3125 22.289062 24.171875 22.148438 24.171875 21.96875 L 24.171875 5.417969 C 24.171875 5.242188 24.3125 5.097656 24.492188 5.097656 C 24.667969 5.097656 24.8125 5.242188 24.8125 5.417969 L 24.8125 21.96875 C 24.8125 22.148438 24.667969 22.289062 24.492188 22.289062 " fill-opacity="1" fill-rule="nonzero"/><path fill="#000000" d="M 21.929688 22.289062 C 21.753906 22.289062 21.609375 22.148438 21.609375 21.96875 L 21.609375 5.417969 C 21.609375 5.242188 21.753906 5.097656 21.929688 5.097656 C 22.109375 5.097656 22.25 5.242188 22.25 5.417969 L 22.25 21.96875 C 22.25 22.148438 22.109375 22.289062 21.929688 22.289062 " fill-opacity="1" fill-rule="nonzero"/><path fill="#000000" d="M 19.367188 22.289062 C 19.191406 22.289062 19.046875 22.148438 19.046875 21.96875 L 19.046875 5.417969 C 19.046875 5.242188 19.191406 5.097656 19.367188 5.097656 C 19.546875 5.097656 19.6875 5.242188 19.6875 5.417969 L 19.6875 21.96875 C 19.6875 22.148438 19.546875 22.289062 19.367188 22.289062 " fill-opacity="1" fill-rule="nonzero"/><path fill="#000000" d="M 16.808594 22.289062 C 16.628906 22.289062 16.488281 22.148438 16.488281 21.96875 L 16.488281 5.417969 C 16.488281 5.242188 16.628906 5.097656 16.808594 5.097656 C 16.984375 5.097656 17.128906 5.242188 17.128906 5.417969 L 17.128906 21.96875 C 17.128906 22.148438 16.984375 22.289062 16.808594 22.289062 " fill-opacity="1" fill-rule="nonzero"/><path fill="#000000" d="M 14.246094 22.289062 C 14.066406 22.289062 13.925781 22.148438 13.925781 21.96875 L 13.925781 5.417969 C 13.925781 5.242188 14.066406 5.097656 14.246094 5.097656 C 14.421875 5.097656 14.566406 5.242188 14.566406 5.417969 L 14.566406 21.96875 C 14.566406 22.148438 14.421875 22.289062 14.246094 22.289062 " fill-opacity="1" fill-rule="nonzero"/><path fill="#000000" d="M 24.492188 19.742188 L 11.683594 19.742188 C 11.507812 19.742188 11.363281 19.601562 11.363281 19.421875 C 11.363281 19.246094 11.507812 19.105469 11.683594 19.105469 L 24.492188 19.105469 C 24.667969 19.105469 24.8125 19.246094 24.8125 19.421875 C 24.8125 19.601562 24.667969 19.742188 24.492188 19.742188 " fill-opacity="1" fill-rule="nonzero"/><path fill="#000000" d="M 25.773438 5.734375 C 25.59375 5.734375 25.453125 5.59375 25.453125 5.417969 L 25.453125 2.871094 C 25.453125 2.695312 25.59375 2.550781 25.773438 2.550781 C 25.949219 2.550781 26.09375 2.695312 26.09375 2.871094 L 26.09375 5.417969 C 26.09375 5.59375 25.949219 5.734375 25.773438 5.734375 " fill-opacity="1" fill-rule="nonzero"/><path fill="#000000" d="M 23.210938 5.734375 C 23.03125 5.734375 22.890625 5.59375 22.890625 5.417969 L 22.890625 2.871094 C 22.890625 2.695312 23.03125 2.550781 23.210938 2.550781 C 23.386719 2.550781 23.53125 2.695312 23.53125 2.871094 L 23.53125 5.417969 C 23.53125 5.59375 23.386719 5.734375 23.210938 5.734375 " fill-opacity="1" fill-rule="nonzero"/><path fill="#000000" d="M 20.648438 5.734375 C 20.472656 5.734375 20.328125 5.59375 20.328125 5.417969 L 20.328125 2.871094 C 20.328125 2.695312 20.472656 2.550781 20.648438 2.550781 C 20.828125 2.550781 20.96875 2.695312 20.96875 2.871094 L 20.96875 5.417969 C 20.96875 5.59375 20.828125 5.734375 20.648438 5.734375 " fill-opacity="1" fill-rule="nonzero"/><path fill="#000000" d="M 18.085938 5.734375 C 17.910156 5.734375 17.765625 5.59375 17.765625 5.417969 L 17.765625 2.871094 C 17.765625 2.695312 17.910156 2.550781 18.085938 2.550781 C 18.265625 2.550781 18.40625 2.695312 18.40625 2.871094 L 18.40625 5.417969 C 18.40625 5.59375 18.265625 5.734375 18.085938 5.734375 " fill-opacity="1" fill-rule="nonzero"/><path fill="#000000" d="M 15.527344 5.734375 C 15.347656 5.734375 15.207031 5.59375 15.207031 5.417969 L 15.207031 2.871094 C 15.207031 2.695312 15.347656 2.550781 15.527344 2.550781 C 15.703125 2.550781 15.847656 2.695312 15.847656 2.871094 L 15.847656 5.417969 C 15.847656 5.59375 15.703125 5.734375 15.527344 5.734375 " fill-opacity="1" fill-rule="nonzero"/><path fill="#000000" d="M 12.964844 5.734375 C 12.785156 5.734375 12.644531 5.59375 12.644531 5.417969 L 12.644531 2.871094 C 12.644531 2.695312 12.785156 2.550781 12.964844 2.550781 C 13.140625 2.550781 13.285156 2.695312 13.285156 2.871094 L 13.285156 5.417969 C 13.285156 5.59375 13.140625 5.734375 12.964844 5.734375 " fill-opacity="1" fill-rule="nonzero"/><g clip-path="url(#da7a1e6fe6)"><path fill="#000000" d="M 3.039062 34.386719 L 33.136719 34.386719 L 33.136719 29.929688 L 3.039062 29.929688 Z M 33.457031 35.019531 L 2.71875 35.019531 C 2.539062 35.019531 2.398438 34.878906 2.398438 34.703125 L 2.398438 29.609375 C 2.398438 29.433594 2.539062 29.292969 2.71875 29.292969 L 33.457031 29.292969 C 33.632812 29.292969 33.777344 29.433594 33.777344 29.609375 L 33.777344 34.703125 C 33.777344 34.878906 33.632812 35.019531 33.457031 35.019531 " fill-opacity="1" fill-rule="nonzero"/></g><path fill="#000000" d="M 5.28125 32.476562 C 5.101562 32.476562 4.960938 32.332031 4.960938 32.15625 L 4.960938 29.609375 C 4.960938 29.433594 5.101562 29.292969 5.28125 29.292969 C 5.457031 29.292969 5.601562 29.433594 5.601562 29.609375 L 5.601562 32.15625 C 5.601562 32.332031 5.457031 32.476562 5.28125 32.476562 " fill-opacity="1" fill-rule="nonzero"/><path fill="#000000" d="M 7.839844 31.203125 C 7.664062 31.203125 7.519531 31.058594 7.519531 30.882812 L 7.519531 29.609375 C 7.519531 29.433594 7.664062 29.292969 7.839844 29.292969 C 8.019531 29.292969 8.160156 29.433594 8.160156 29.609375 L 8.160156 30.882812 C 8.160156 31.058594 8.019531 31.203125 7.839844 31.203125 " fill-opacity="1" fill-rule="nonzero"/><path fill="#000000" d="M 10.402344 32.476562 C 10.226562 32.476562 10.082031 32.332031 10.082031 32.15625 L 10.082031 29.609375 C 10.082031 29.433594 10.226562 29.292969 10.402344 29.292969 C 10.582031 29.292969 10.722656 29.433594 10.722656 29.609375 L 10.722656 32.15625 C 10.722656 32.332031 10.582031 32.476562 10.402344 32.476562 " fill-opacity="1" fill-rule="nonzero"/><path fill="#000000" d="M 12.964844 31.203125 C 12.785156 31.203125 12.644531 31.058594 12.644531 30.882812 L 12.644531 29.609375 C 12.644531 29.433594 12.785156 29.292969 12.964844 29.292969 C 13.140625 29.292969 13.285156 29.433594 13.285156 29.609375 L 13.285156 30.882812 C 13.285156 31.058594 13.140625 31.203125 12.964844 31.203125 " fill-opacity="1" fill-rule="nonzero"/><path fill="#000000" d="M 15.527344 32.476562 C 15.347656 32.476562 15.207031 32.332031 15.207031 32.15625 L 15.207031 29.609375 C 15.207031 29.433594 15.347656 29.292969 15.527344 29.292969 C 15.703125 29.292969 15.847656 29.433594 15.847656 29.609375 L 15.847656 32.15625 C 15.847656 32.332031 15.703125 32.476562 15.527344 32.476562 " fill-opacity="1" fill-rule="nonzero"/><path fill="#000000" d="M 18.085938 31.203125 C 17.910156 31.203125 17.765625 31.058594 17.765625 30.882812 L 17.765625 29.609375 C 17.765625 29.433594 17.910156 29.292969 18.085938 29.292969 C 18.265625 29.292969 18.40625 29.433594 18.40625 29.609375 L 18.40625 30.882812 C 18.40625 31.058594 18.265625 31.203125 18.085938 31.203125 " fill-opacity="1" fill-rule="nonzero"/><path fill="#000000" d="M 20.648438 32.476562 C 20.472656 32.476562 20.328125 32.332031 20.328125 32.15625 L 20.328125 29.609375 C 20.328125 29.433594 20.472656 29.292969 20.648438 29.292969 C 20.828125 29.292969 20.96875 29.433594 20.96875 29.609375 L 20.96875 32.15625 C 20.96875 32.332031 20.828125 32.476562 20.648438 32.476562 " fill-opacity="1" fill-rule="nonzero"/><path fill="#000000" d="M 23.210938 31.203125 C 23.03125 31.203125 22.890625 31.058594 22.890625 30.882812 L 22.890625 29.609375 C 22.890625 29.433594 23.03125 29.292969 23.210938 29.292969 C 23.386719 29.292969 23.53125 29.433594 23.53125 29.609375 L 23.53125 30.882812 C 23.53125 31.058594 23.386719 31.203125 23.210938 31.203125 " fill-opacity="1" fill-rule="nonzero"/><path fill="#000000" d="M 25.773438 32.476562 C 25.59375 32.476562 25.453125 32.332031 25.453125 32.15625 L 25.453125 29.609375 C 25.453125 29.433594 25.59375 29.292969 25.773438 29.292969 C 25.949219 29.292969 26.09375 29.433594 26.09375 29.609375 L 26.09375 32.15625 C 26.09375 32.332031 25.949219 32.476562 25.773438 32.476562 " fill-opacity="1" fill-rule="nonzero"/><path fill="#000000" d="M 28.332031 31.203125 C 28.15625 31.203125 28.011719 31.058594 28.011719 30.882812 L 28.011719 29.609375 C 28.011719 29.433594 28.15625 29.292969 28.332031 29.292969 C 28.511719 29.292969 28.652344 29.433594 28.652344 29.609375 L 28.652344 30.882812 C 28.652344 31.058594 28.511719 31.203125 28.332031 31.203125 " fill-opacity="1" fill-rule="nonzero"/><path fill="#000000" d="M 30.894531 32.476562 C 30.71875 32.476562 30.574219 32.332031 30.574219 32.15625 L 30.574219 29.609375 C 30.574219 29.433594 30.71875 29.292969 30.894531 29.292969 C 31.074219 29.292969 31.214844 29.433594 31.214844 29.609375 L 31.214844 32.15625 C 31.214844 32.332031 31.074219 32.476562 30.894531 32.476562 " fill-opacity="1" fill-rule="nonzero"/><path fill="#000000" d="M 30.894531 26.109375 L 10.402344 26.109375 C 10.273438 26.109375 10.15625 26.03125 10.109375 25.910156 C 10.058594 25.792969 10.085938 25.65625 10.179688 25.566406 L 11.457031 24.292969 C 11.582031 24.167969 11.785156 24.167969 11.910156 24.292969 C 12.035156 24.417969 12.035156 24.617188 11.910156 24.742188 L 11.175781 25.472656 L 30.121094 25.472656 L 29.390625 24.742188 C 29.265625 24.617188 29.265625 24.417969 29.390625 24.292969 C 29.515625 24.167969 29.714844 24.167969 29.839844 24.292969 L 31.121094 25.566406 C 31.210938 25.65625 31.242188 25.792969 31.191406 25.910156 C 31.144531 26.03125 31.023438 26.109375 30.894531 26.109375 " fill-opacity="1" fill-rule="nonzero"/><path fill="#000000" d="M 29.613281 27.382812 C 29.53125 27.382812 29.449219 27.351562 29.390625 27.289062 C 29.265625 27.164062 29.265625 26.964844 29.390625 26.839844 L 30.671875 25.566406 C 30.796875 25.441406 30.996094 25.441406 31.121094 25.566406 C 31.246094 25.691406 31.246094 25.890625 31.121094 26.015625 L 29.839844 27.289062 C 29.78125 27.351562 29.695312 27.382812 29.613281 27.382812 " fill-opacity="1" fill-rule="nonzero"/><path fill="#000000" d="M 11.683594 27.382812 C 11.601562 27.382812 11.519531 27.351562 11.457031 27.289062 L 10.179688 26.015625 C 10.054688 25.890625 10.054688 25.691406 10.179688 25.566406 C 10.304688 25.441406 10.503906 25.441406 10.628906 25.566406 L 11.910156 26.839844 C 12.035156 26.964844 12.035156 27.164062 11.910156 27.289062 C 11.847656 27.351562 11.765625 27.382812 11.683594 27.382812 " fill-opacity="1" fill-rule="nonzero"/><path fill="#000000" d="M 6.5625 22.925781 C 6.476562 22.925781 6.394531 22.894531 6.335938 22.832031 L 5.054688 21.558594 C 4.929688 21.433594 4.929688 21.234375 5.054688 21.109375 C 5.179688 20.984375 5.378906 20.984375 5.503906 21.109375 L 6.242188 21.839844 L 6.242188 1.09375 L 5.503906 1.820312 C 5.378906 1.945312 5.179688 1.945312 5.054688 1.820312 C 4.929688 1.695312 4.929688 1.496094 5.054688 1.375 L 6.335938 0.101562 C 6.425781 0.0078125 6.566406 -0.0195312 6.683594 0.03125 C 6.804688 0.078125 6.882812 0.195312 6.882812 0.324219 L 6.882812 22.605469 C 6.882812 22.734375 6.804688 22.851562 6.683594 22.898438 C 6.644531 22.917969 6.601562 22.925781 6.5625 22.925781 " fill-opacity="1" fill-rule="nonzero"/><path fill="#000000" d="M 7.839844 1.914062 C 7.757812 1.914062 7.675781 1.886719 7.617188 1.820312 L 6.335938 0.546875 C 6.210938 0.421875 6.210938 0.222656 6.335938 0.101562 C 6.460938 -0.0234375 6.660156 -0.0234375 6.785156 0.101562 L 8.066406 1.375 C 8.191406 1.496094 8.191406 1.695312 8.066406 1.820312 C 8.007812 1.886719 7.925781 1.914062 7.839844 1.914062 " fill-opacity="1" fill-rule="nonzero"/><path fill="#000000" d="M 6.5625 22.925781 C 6.476562 22.925781 6.394531 22.894531 6.335938 22.832031 C 6.210938 22.707031 6.210938 22.507812 6.335938 22.382812 L 7.617188 21.109375 C 7.742188 20.984375 7.941406 20.984375 8.066406 21.109375 C 8.191406 21.234375 8.191406 21.433594 8.066406 21.558594 L 6.785156 22.832031 C 6.726562 22.894531 6.644531 22.925781 6.5625 22.925781 " fill-opacity="1" fill-rule="nonzero"/></svg>