<svg width="40" height="566" viewBox="0 0 40 566" fill="none" xmlns="http://www.w3.org/2000/svg">
<path d="M22 491H17L16 504.5H13.5L12.5 530L11 532.5L8.5 533.5L7 536.5L5 552L1.5 560.5L2.5 563L5.5 564L11.5 558L12.5 562.5L14.5 563L16 562.5L19.5 556L24.5 563.5H26L27.5 563L29 557.5L34 563.5H37.5L38.5 560.5L35 552L33 536.5L31 533.5L28 532.5L26.5 504.5H23V503.5L22 491Z" fill="white"/>
<path fill-rule="evenodd" clip-rule="evenodd" d="M26.3158 507.368C26.7361 507.368 27.1481 507.404 27.5492 507.471L28.3926 521.809C27.7339 522.002 27.0369 522.105 26.3158 522.105C22.2463 522.105 18.9474 518.806 18.9474 514.737C18.9474 510.667 22.2463 507.368 26.3158 507.368Z" fill="#F0BC5E"/>
<path fill-rule="evenodd" clip-rule="evenodd" d="M11.5789 529.455C15.4028 529.185 18.4211 525.998 18.4211 522.105C18.4211 518.213 15.4028 515.025 11.5789 514.755V529.455Z" fill="#F0BC5E"/>
<path d="M20 532.105H12.2284C9.16432 532.105 6.59251 534.414 6.26317 537.46L4.89775 550.091C4.79107 551.077 4.53809 552.043 4.14713 552.955L1.25001 559.715C0.571293 561.299 1.36296 563.127 2.98222 563.716L3.72545 563.986C4.9544 564.433 6.33124 564.033 7.12855 562.996L11.0526 557.895L12.1053 551.579L11.3437 560.337C11.1872 562.137 12.6058 563.684 14.4122 563.684V563.684C15.5788 563.684 16.6454 563.025 17.1671 561.982L18.9443 558.427C19.6386 557.039 20 555.508 20 553.955V545.263" stroke="#313131" stroke-width="2" stroke-linejoin="round"/>
<path d="M33.7368 537.46L34.731 537.353L34.731 537.353L33.7368 537.46ZM35.1023 550.091L36.0965 549.983L36.0965 549.983L35.1023 550.091ZM35.8529 552.955L36.772 552.561L36.772 552.561L35.8529 552.955ZM38.75 559.715L37.8308 560.109L37.8308 560.109L38.75 559.715ZM37.0178 563.716L36.676 562.776L36.676 562.776L37.0178 563.716ZM36.2745 563.986L36.6163 564.926L36.6163 564.926L36.2745 563.986ZM32.8714 562.996L32.0788 563.606L32.0788 563.606L32.8714 562.996ZM28.9474 557.895L28.1547 558.504C28.0545 558.374 27.988 558.221 27.961 558.059L28.9474 557.895ZM27.8947 551.579L26.8985 551.666C26.852 551.131 27.2363 550.654 27.7691 550.587C28.3019 550.519 28.7928 550.885 28.8811 551.415L27.8947 551.579ZM28.6563 560.337L29.6526 560.251L29.6526 560.251L28.6563 560.337ZM22.8329 561.982L21.9385 562.429L21.9385 562.429L22.8329 561.982ZM21.0557 558.427L21.9502 557.98L21.9502 557.98L21.0557 558.427ZM19 545.263C19 544.711 19.4477 544.263 20 544.263C20.5523 544.263 21 544.711 21 545.263H19ZM20 531.105H27.7716V533.105H20V531.105ZM34.731 537.353L36.0965 549.983L34.108 550.198L32.7426 537.568L34.731 537.353ZM36.772 552.561L39.6691 559.321L37.8308 560.109L34.9337 553.349L36.772 552.561ZM37.3595 564.656L36.6163 564.926L35.9328 563.046L36.676 562.776L37.3595 564.656ZM32.0788 563.606L28.1547 558.504L29.74 557.285L33.6641 562.386L32.0788 563.606ZM27.961 558.059L26.9083 551.743L28.8811 551.415L29.9338 557.73L27.961 558.059ZM28.891 551.492L29.6526 560.251L27.6601 560.424L26.8985 551.666L28.891 551.492ZM21.9385 562.429L20.1613 558.874L21.9502 557.98L23.7273 561.534L21.9385 562.429ZM19 553.955V545.263H21V553.955H19ZM20.1613 558.874C19.3976 557.347 19 555.663 19 553.955H21C21 555.352 21.3253 556.73 21.9502 557.98L20.1613 558.874ZM25.5878 564.684C24.0424 564.684 22.6296 563.811 21.9385 562.429L23.7273 561.534C24.0797 562.239 24.7999 562.684 25.5878 562.684V564.684ZM36.6163 564.926C34.9777 565.522 33.1419 564.988 32.0788 563.606L33.6641 562.386C34.1956 563.077 35.1135 563.344 35.9328 563.046L36.6163 564.926ZM39.6691 559.321C40.5741 561.433 39.5185 563.871 37.3595 564.656L36.676 562.776C37.7555 562.384 38.2833 561.165 37.8308 560.109L39.6691 559.321ZM29.6526 560.251C29.8599 562.634 27.9807 564.684 25.5878 564.684V562.684C26.8077 562.684 27.7658 561.639 27.6601 560.424L29.6526 560.251ZM36.0965 549.983C36.1925 550.871 36.4201 551.74 36.772 552.561L34.9337 553.349C34.5037 552.345 34.2254 551.283 34.108 550.198L36.0965 549.983ZM27.7716 531.105C31.3464 531.105 34.3468 533.799 34.731 537.353L32.7426 537.568C32.4682 535.029 30.325 533.105 27.7716 533.105V531.105Z" fill="#313131"/>
<path d="M11.5789 532.105L12.6316 503.684H27.3684L28.4211 532.105" stroke="#313131" stroke-width="2" stroke-linejoin="round"/>
<path d="M15.7895 503.158L16.8421 490.526H22.6316L23.6842 503.158" stroke="#313131" stroke-width="2" stroke-linejoin="round"/>
<line x1="20.0526" y1="489.474" x2="20.0526" y2="4.37114e-08" stroke="#313131" stroke-width="2" stroke-dasharray="7 3"/>
</svg>
